<?xml version="1.0" encoding="utf-8"?>
<!-- Generator: Adobe Illustrator 28.3.0, SVG Export Plug-In . SVG Version: 6.00 Build 0)  -->
<svg version="1.1" id="Variable-2" xmlns="http://www.w3.org/2000/svg" xmlns:xlink="http://www.w3.org/1999/xlink" x="0px" y="0px"
	 viewBox="0 0 353.1 335.5" style="enable-background:new 0 0 353.1 335.5;" xml:space="preserve">
<style type="text/css">
	.st0{fill:none;stroke:#D6D6D6;stroke-miterlimit:10;}
	.st1{fill:#FFFFFF;stroke:#D6D6D6;stroke-miterlimit:10;}
	.st2{opacity:0.4;}
	.st3{opacity:0.5;fill:none;stroke:#EC6143;stroke-width:8;stroke-linecap:round;stroke-linejoin:round;enable-background:new    ;}
	.st4{font-family:'Patrick Hand SC', Helvetica, Arial, sans-serif;}
	.st5{font-size:16px;}
	.st6{fill:none;stroke:#D6D6D6;stroke-width:0.5;stroke-linecap:round;stroke-linejoin:round;}
	.st7{fill:none;stroke:#D6D6D6;stroke-width:0.5;stroke-linecap:round;stroke-linejoin:round;stroke-dasharray:0,0,4.0349,4.0349;}
	.st8{fill:#EC6143;}
	.st9{fill:#F4774F;}
	.st10{fill:#FA8B5C;}
	.st11{fill:#FCA16C;}
	.st12{fill:none;stroke:#000000;stroke-miterlimit:10;}
	.st13{fill:#FFFFFF;}
	.st14{fill:#FDB57E;}
	.st15{fill:#FDC58E;}
	.st16{fill:#FDD19E;}
	.st17{fill:#FDDCAF;}
	.st18{font-size:14px;}
	.st19{font-size:12px;}
	.st20{font-size:10px;}
	.st21{fill:none;stroke:#000000;stroke-linecap:round;stroke-linejoin:round;}
</style>
<g id="Bottom">
	<circle class="st0" cx="171" cy="181.5" r="113.3"/>
	<circle class="st1" cx="171" cy="181.5" r="113.3"/>
</g>
<g id="Fill_In" class="st2">
	<polyline class="st3" points="257.2,197 233.2,195 257.6,209 231.3,202 251.9,218.6 229,210.1 245.6,231.1 224.8,223.3 
		241.2,241.4 213.5,221.6 230,242.5 208.1,228.4 220.5,245.3 198.4,233.9 202.8,246.6 191.8,237.6 198.8,249.8 188.8,242.5 
		199.4,257 184.2,245.3 189.9,265.2 177.4,250.5 181.6,269.7 176,257 176,271.6 	"/>
	<polyline class="st3" points="215.8,191.5 198,191.5 215.8,200.5 195.3,198.1 208.1,213.2 185.6,204.8 196.7,218.1 177.4,206.9 
		181.6,230 173.1,210.8 174.9,241.4 	"/>
	<polyline class="st3" points="184.2,185.6 175.1,184.2 179.9,187.5 173.1,184.2 172.7,196.3 	"/>
	<polyline class="st3" points="275,197.6 268.2,199.2 275,206.2 268.2,206.2 271.6,212.4 267.1,212.4 271.1,221.6 263.6,221.6 
		268.2,228.4 261.1,230 265.1,235.2 258.7,242.5 257.6,247.2 249.4,247.2 251.9,253.3 243.5,253.3 246.6,258.7 232.7,255.1 
		239.7,261.2 228.1,258.6 232.2,267.1 220.1,262.2 226.7,273.5 214.8,266.5 218.8,275.4 209.9,268.5 210.5,281.1 204.2,265.2 
		204.2,284.1 200.5,274.9 199.4,287.5 192.9,278.9 191.8,284.9 184.2,281.1 181.6,286.5 177.4,283 176,286.9 	"/>
</g>
<g id="_1_Group">
	<text transform="matrix(0.9405 -0.3397 0.3397 0.9405 127.381 69.5877)" class="st4 st5">1</text>
	<text transform="matrix(0.9526 -0.3043 0.3043 0.9526 132.7588 67.6669)" class="st4 st5">.</text>
	<text transform="matrix(0.9736 -0.2283 0.2283 0.9736 139.325 65.6019)" class="st4 st5">C</text>
	<text transform="matrix(0.9855 -0.1696 0.1696 0.9855 147.7246 63.6699)" class="st4 st5">h</text>
	<text transform="matrix(0.9931 -0.1172 0.1172 0.9931 153.5925 62.6436)" class="st4 st5">a</text>
	<text transform="matrix(0.9981 -6.139521e-02 6.139521e-02 0.9981 160.4544 61.8326)" class="st4 st5">ll</text>
	<text transform="matrix(1 -9.595673e-03 9.595673e-03 1 167.179 61.4253)" class="st4 st5">e</text>
	<text transform="matrix(0.9991 4.292191e-02 -4.292191e-02 0.9991 173.1168 61.352)" class="st4 st5">n</text>
	<text transform="matrix(0.9952 9.794940e-02 -9.794940e-02 0.9952 180.007 61.648)" class="st4 st5">g</text>
	<text transform="matrix(0.9888 0.149 -0.149 0.9888 186.5809 62.3007)" class="st4 st5">e</text>
	<text transform="matrix(0.9801 0.1984 -0.1984 0.9801 192.4652 63.1798)" class="st4 st5">s</text>
	<g id="_1._Axes">
		<line class="st6" x1="170.7" y1="181.1" x2="170.2" y2="179.2"/>
		<line class="st7" x1="169.2" y1="175.3" x2="144.6" y2="75.4"/>
		<line class="st6" x1="144.1" y1="73.4" x2="143.6" y2="71.5"/>
		<line class="st6" x1="170.7" y1="181.1" x2="171.1" y2="179.2"/>
		<line class="st7" x1="172.1" y1="175.3" x2="196.7" y2="75.4"/>
		<line class="st6" x1="197.2" y1="73.4" x2="197.7" y2="71.5"/>
		<line class="st6" x1="170.7" y1="181.1" x2="172" y2="179.6"/>
		<line class="st7" x1="174.7" y1="176.6" x2="242.9" y2="99.6"/>
		<line class="st6" x1="244.2" y1="98.1" x2="245.6" y2="96.6"/>
		<line class="st6" x1="170.7" y1="181.1" x2="172.5" y2="180.4"/>
		<line class="st7" x1="176.3" y1="179" x2="272.5" y2="142.5"/>
		<line class="st6" x1="274.4" y1="141.8" x2="276.3" y2="141.1"/>
	</g>
	<g id="_1._Bars">
		<path class="st8" d="M130.6,95.6c11.1-5.1,23-8.1,35.2-8.7l4.6,94.3L130.6,95.6L130.6,95.6z"/>
		<path class="st9" d="M173.9,109.1c9.3,0.5,18.5,2.7,26.9,6.6l-30.4,65.5L173.9,109.1L173.9,109.1z"/>
		<path class="st10" d="M213.5,108c9.5,5.6,17.8,12.9,24.4,21.6l-67.5,51.6L213.5,108L213.5,108z"/>
		<path class="st11" d="M215.8,153.1c3.6,5.9,6.1,12.4,7.3,19.2l-52.6,9L215.8,153.1z"/>
	</g>
	<path id="_1_color" class="st10" d="M170.4,75.4c52.4,0,95.9,38.1,104.3,88l7.9-1.4C273.5,108.7,227,68.2,171,68.2
		c-17.2,0-33.4,3.8-48,10.7l2.9,6.3C139.4,78.9,154.5,75.4,170.4,75.4L170.4,75.4z"/>
</g>
<g id="_2_Group">
	<text transform="matrix(8.534916e-02 0.9964 -0.9964 8.534916e-02 292.0551 168.6136)" class="st4 st5">2</text>
	<text transform="matrix(4.119556e-02 0.9992 -0.9992 4.119556e-02 292.6428 175.9664)" class="st4 st5">.</text>
	<text transform="matrix(-3.759072e-02 0.9993 -0.9993 -3.759072e-02 292.8943 182.837)" class="st4 st5">C</text>
	<text transform="matrix(-9.728933e-02 0.9953 -0.9953 -9.728933e-02 292.5359 191.4434)" class="st4 st5">h</text>
	<text transform="matrix(-0.1497 0.9887 -0.9887 -0.1497 291.972 197.3709)" class="st4 st5">a</text>
	<text transform="matrix(-0.2048 0.9788 -0.9788 -0.2048 290.939 204.2012)" class="st4 st5">ll</text>
	<text transform="matrix(-0.2553 0.9669 -0.9669 -0.2553 289.5531 210.7931)" class="st4 st5">e</text>
	<text transform="matrix(-0.3059 0.9521 -0.9521 -0.3059 288.0481 216.5597)" class="st4 st5">n</text>
	<text transform="matrix(-0.3579 0.9338 -0.9338 -0.3579 285.9356 223.1273)" class="st4 st5">g</text>
	<text transform="matrix(-0.4054 0.9142 -0.9142 -0.4054 283.5742 229.2738)" class="st4 st5">e</text>
	<text transform="matrix(-0.4507 0.8927 -0.8927 -0.4507 281.1687 234.7184)" class="st4 st5">s</text>
	<text transform="matrix(-0.5126 0.8586 -0.8586 -0.5126 276.5506 243.4879)" class="st4 st5">I</text>
	<text transform="matrix(-0.5495 0.8355 -0.8355 -0.5495 274.7209 246.6262)" class="st4 st5">n</text>
	<text transform="matrix(-0.6217 0.7833 -0.7833 -0.6217 268.8398 255.3139)" class="st4 st5">D</text>
	<text transform="matrix(-0.6643 0.7475 -0.7475 -0.6643 264.1784 261.1577)" class="st4 st5">e</text>
	<text transform="matrix(-0.6999 0.7142 -0.7142 -0.6999 260.231 265.602)" class="st4 st5">p</text>
	<text transform="matrix(-0.7361 0.6768 -0.6768 -0.7361 256.1868 269.7508)" class="st4 st5">t</text>
	<text transform="matrix(-0.7705 0.6374 -0.6374 -0.7705 251.2371 274.2929)" class="st4 st5">h</text>
	<g id="_2._Axes">
		<line class="st6" x1="170.7" y1="181.1" x2="172.7" y2="181.4"/>
		<line class="st7" x1="176.7" y1="181.8" x2="278.8" y2="194.2"/>
		<line class="st6" x1="280.8" y1="194.5" x2="282.8" y2="194.7"/>
		<line class="st6" x1="170.7" y1="181.1" x2="172.3" y2="182.3"/>
		<line class="st7" x1="175.6" y1="184.5" x2="260.3" y2="243"/>
		<line class="st6" x1="262" y1="244.1" x2="263.6" y2="245.3"/>
		<line class="st6" x1="170.7" y1="181.1" x2="171.6" y2="182.9"/>
		<line class="st7" x1="173.5" y1="186.5" x2="221.3" y2="277.6"/>
		<line class="st6" x1="222.2" y1="279.4" x2="223.2" y2="281.1"/>
		<line class="st6" x1="170.7" y1="181.1" x2="170.7" y2="183.1"/>
		<line class="st7" x1="170.7" y1="187.2" x2="170.7" y2="290"/>
		<line class="st6" x1="170.7" y1="292.1" x2="170.7" y2="294.1"/>
	</g>
	<g id="_2._Lines">
		<path class="st12" d="M263,191.5c-1.4,15.2-1.9,34.1-10.6,45c-8.6,10.8-27.7,13.1-41.2,20.2c-13.4,7-27.8,23.7-39.6,22.2"/>
		<path class="st12" d="M224.8,187.2c-2.4,8.8-0.7,20.3-5.7,26.7c-5,6.4-17.2,6.7-24.5,11.7c-8.9,6.1-17.1,23.6-23.2,23.4"/>
		<path class="st12" d="M196.1,184c-2.3,3.2-5,7.1-8.5,8.7c-2.9,1.3-7.5-0.3-10.2,1.2c-3.3,1.9-4.9,10.6-6.6,11"/>
	</g>
	<g id="_2._Circles">
		<circle class="st13" cx="196.1" cy="184.2" r="5.3"/>
		<circle class="st14" cx="196.1" cy="184.2" r="4.2"/>
		<circle class="st13" cx="187.6" cy="192.8" r="5.3"/>
		<circle class="st15" cx="187.6" cy="192.8" r="4.2"/>
		<circle class="st13" cx="177.4" cy="193.9" r="5.3"/>
		<circle class="st16" cx="177.4" cy="193.9" r="4.2"/>
		<circle class="st13" cx="170.7" cy="204.8" r="5.3"/>
		<circle class="st17" cx="170.7" cy="204.8" r="4.2"/>
		<circle class="st13" cx="224.7" cy="187.7" r="5.3"/>
		<circle class="st14" cx="224.7" cy="187.7" r="4.2"/>
		<circle class="st13" cx="218.8" cy="214.3" r="5.3"/>
		<circle class="st15" cx="218.8" cy="214.3" r="4.2"/>
		<circle class="st13" cx="194.1" cy="225.8" r="5.3"/>
		<circle class="st16" cx="194.1" cy="225.8" r="4.2"/>
		<circle class="st13" cx="170.7" cy="249" r="5.3"/>
		<circle class="st17" cx="170.7" cy="249" r="4.2"/>
		<circle class="st13" cx="262.9" cy="192.3" r="5.3"/>
		<circle class="st14" cx="262.9" cy="192.3" r="4.2"/>
		<circle class="st13" cx="251.9" cy="237.2" r="5.3"/>
		
			<ellipse transform="matrix(0.1602 -0.9871 0.9871 0.1602 -22.5758 447.8702)" class="st15" cx="251.9" cy="237.2" rx="4.2" ry="4.2"/>
		<circle class="st13" cx="210.5" cy="257" r="5.3"/>
		<circle class="st16" cx="210.5" cy="257" r="4.2"/>
		<circle class="st13" cx="170.7" cy="278.8" r="5.3"/>
		<circle class="st17" cx="170.7" cy="278.8" r="4.2"/>
	</g>
	<path id="_2_color" class="st15" d="M282.7,162l-7.9,1.4c1,5.8,1.5,11.7,1.5,17.8c0,58.5-47.4,105.8-105.8,105.8
		c-6.1,0-12.1-0.5-17.9-1.5l-1.3,7.6c6.4,1.1,13,1.7,19.8,1.7c62.6,0,113.3-50.7,113.3-113.3C284.4,174.9,283.8,168.4,282.7,162
		L282.7,162z"/>
</g>
<circle id="Outside_Stroke" class="st0" cx="171" cy="181.5" r="113.3"/>
<g id="_1">
	<circle class="st1" cx="124.4" cy="83" r="8.1"/>
	<text transform="matrix(1 0 0 1 120.5065 87.6383)" class="st10 st4 st18">1</text>
</g>
<g id="_2">
	<circle class="st1" cx="278.8" cy="163.4" r="8.1"/>
	<text transform="matrix(1 0 0 1 275.5133 168.1007)" class="st15 st4 st18">2</text>
</g>
<text transform="matrix(0.8462 -0.5328 0.5328 0.8462 197.9433 282.6068)" class="st4 st19">Significant</text>
<text transform="matrix(0.8462 -0.5328 0.5328 0.8462 186.2873 257.1869)" class="st4 st19">Moderate</text>
<text transform="matrix(0.8462 -0.5328 0.5328 0.8462 177.8798 221.2103)" class="st4 st19">Minor</text>
<text transform="matrix(0.8462 -0.5328 0.5328 0.8462 168.8234 197.9706)" class="st4 st19">None</text>
<text transform="matrix(0.5856 -0.8106 0.8106 0.5856 112.7827 279.8448)" class="st4 st20">100%</text>
<text transform="matrix(0.5856 -0.8106 0.8106 0.5856 95.2727 268.7569)" class="st4 st5">% of Respondents</text>
<text transform="matrix(0.5856 -0.8106 0.8106 0.5856 81.7566 258.9923)" class="st4 st5">Radius =</text>
<polyline class="st21" points="169.7,182.4 103.7,274.8 107.5,274.7 "/>
<line class="st21" x1="103.2" y1="271.1" x2="103.7" y2="274.8"/>
</svg>
