<?xml version="1.0" encoding="utf-8"?>
<!-- Generator: Adobe Illustrator 28.3.0, SVG Export Plug-In . SVG Version: 6.00 Build 0)  -->
<svg version="1.1" id="Base" xmlns="http://www.w3.org/2000/svg" xmlns:xlink="http://www.w3.org/1999/xlink" x="0px" y="0px"
	 viewBox="0 0 353.1 335.5" style="enable-background:new 0 0 353.1 335.5;" xml:space="preserve">
<style type="text/css">
	@import url('https://fonts.googleapis.com/css2?family=Patrick+Hand+SC')
	.st0{fill:none;stroke:#D6D6D6;stroke-miterlimit:10;}
	.st1{fill:#FFFFFF;stroke:#D6D6D6;stroke-miterlimit:10;}
	.st2{font-family:'PatrickHandSC-Regular';}
	.st3{font-size:10px;}
	.st4{font-size:22.2696px;}
	.st5{fill:none;stroke:#000000;stroke-width:0.25;stroke-miterlimit:10;}
	.st6{font-size:19.1264px;}
</style>
<g id="Bottom">
	<circle class="st0" cx="171" cy="181.5" r="113.3"/>
	<circle class="st1" cx="171" cy="181.5" r="113.3"/>
</g>
<text transform="matrix(0.4647 -0.8854 0.8854 0.4647 122.1494 274.7662)" class="st2 st3">L</text>
<text transform="matrix(0.4647 -0.8855 0.8855 0.4647 124.8575 269.6075)" class="st2 st3">a</text>
<text transform="matrix(0.4647 -0.8855 0.8855 0.4647 127.8779 263.8531)" class="st2 st3">c</text>
<text transform="matrix(0.4647 -0.8854 0.8854 0.4647 130.9533 257.9933)" class="st2 st3">k</text>
<text transform="matrix(0.4647 -0.8855 0.8855 0.4647 136.0636 248.2576)" class="st2 st3">O</text>
<text transform="matrix(0.4647 -0.8855 0.8855 0.4647 139.6211 241.4784)" class="st2 st3">f</text>
<text transform="matrix(0.4647 -0.8855 0.8855 0.4647 144.2705 232.619)" class="st2 st3">T</text>
<text transform="matrix(0.4647 -0.8855 0.8855 0.4647 147.422 226.6143)" class="st2 st3">i</text>
<text transform="matrix(0.4647 -0.8855 0.8855 0.4647 149.1106 223.3988)" class="st2 st3">m</text>
<text transform="matrix(0.4647 -0.8855 0.8855 0.4647 152.3067 217.3089)" class="st2 st3">e</text>
<text transform="matrix(0.823 -0.5681 0.5681 0.823 84.3937 241.393)" class="st2 st3">L</text>
<text transform="matrix(0.823 -0.5681 0.5681 0.823 87.7649 239.0668)" class="st2 st3">a</text>
<text transform="matrix(0.823 -0.5681 0.5681 0.823 91.6642 236.3757)" class="st2 st3">c</text>
<text transform="matrix(0.823 -0.5681 0.5681 0.823 95.6455 233.6277)" class="st2 st3">k</text>
<text transform="matrix(0.823 -0.5681 0.5681 0.823 101.8369 229.3541)" class="st2 st3">D</text>
<text transform="matrix(0.823 -0.5681 0.5681 0.823 106.0364 226.4548)" class="st2 st3">e</text>
<text transform="matrix(0.823 -0.5681 0.5681 0.823 109.4514 224.0984)" class="st2 st3">s</text>
<text transform="matrix(0.823 -0.5681 0.5681 0.823 113.0382 221.6229)" class="st2 st3">i</text>
<text transform="matrix(0.823 -0.5681 0.5681 0.823 114.5627 220.5711)" class="st2 st3">g</text>
<text transform="matrix(0.823 -0.5681 0.5681 0.823 118.295 217.9936)" class="st2 st3">n</text>
<text transform="matrix(0.823 -0.5681 0.5681 0.823 124.3928 213.785)" class="st2 st3">S</text>
<text transform="matrix(0.823 -0.5681 0.5681 0.823 128.4601 210.9773)" class="st2 st3">k</text>
<text transform="matrix(0.823 -0.568 0.568 0.823 132.4611 208.2157)" class="st2 st3">i</text>
<text transform="matrix(0.823 -0.5681 0.5681 0.823 133.9719 207.1727)" class="st2 st3">ll</text>
<text transform="matrix(0.823 -0.5681 0.5681 0.823 137.8086 204.5231)" class="st2 st3">s</text>
<text transform="matrix(0.9927 -0.1205 0.1205 0.9927 67.1808 194.1832)" class="st2 st3">L</text>
<text transform="matrix(0.9927 -0.1205 0.1205 0.9927 71.6769 193.6373)" class="st2 st3">a</text>
<text transform="matrix(0.9927 -0.1205 0.1205 0.9927 76.8302 193.0114)" class="st2 st3">c</text>
<text transform="matrix(0.9927 -0.1205 0.1205 0.9927 82.1056 192.3707)" class="st2 st3">k</text>
<text transform="matrix(0.9927 -0.1205 0.1205 0.9927 90.4474 191.358)" class="st2 st3">T</text>
<text transform="matrix(0.9927 -0.1205 0.1205 0.9927 95.8654 190.6998)" class="st2 st3">e</text>
<text transform="matrix(0.9927 -0.1205 0.1205 0.9927 100.4376 190.1452)" class="st2 st3">c</text>
<text transform="matrix(0.9927 -0.1205 0.1205 0.9927 105.7228 189.5036)" class="st2 st3">h</text>
<text transform="matrix(0.9927 -0.1205 0.1205 0.9927 113.3517 188.5768)" class="st2 st3">S</text>
<text transform="matrix(0.9927 -0.1205 0.1205 0.9927 118.7052 187.9264)" class="st2 st3">k</text>
<text transform="matrix(0.9927 -0.1205 0.1205 0.9927 123.9611 187.2887)" class="st2 st3">i</text>
<text transform="matrix(0.9927 -0.1205 0.1205 0.9927 126.2452 187.0123)" class="st2 st3">ll</text>
<text transform="matrix(0.9927 -0.1205 0.1205 0.9927 131.3439 186.3932)" class="st2 st3">s</text>
<text transform="matrix(0.935 0.3546 -0.3546 0.935 72.6759 144.2575)" class="st2 st3">L</text>
<text transform="matrix(0.935 0.3546 -0.3546 0.935 76.1544 145.5759)" class="st2 st3">e</text>
<text transform="matrix(0.935 0.3546 -0.3546 0.935 79.7276 146.9314)" class="st2 st3">a</text>
<text transform="matrix(0.935 0.3546 -0.3546 0.935 83.8459 148.4928)" class="st2 st3">r</text>
<text transform="matrix(0.935 0.3546 -0.3546 0.935 87.5811 149.9089)" class="st2 st3">n</text>
<text transform="matrix(0.935 0.3546 -0.3546 0.935 91.7043 151.4732)" class="st2 st3">i</text>
<text transform="matrix(0.935 0.3546 -0.3546 0.935 93.0968 152.0016)" class="st2 st3">n</text>
<text transform="matrix(0.935 0.3546 -0.3546 0.935 97.2276 153.5681)" class="st2 st3">g</text>
<text transform="matrix(0.935 0.3546 -0.3546 0.935 103.2823 155.864)" class="st2 st3">N</text>
<text transform="matrix(0.935 0.3546 -0.3546 0.935 108.2676 157.7544)" class="st2 st3">e</text>
<text transform="matrix(0.935 0.3546 -0.3546 0.935 111.8244 159.1031)" class="st2 st3">w</text>
<text transform="matrix(0.935 0.3546 -0.3546 0.935 118.6524 161.6931)" class="st2 st3">T</text>
<text transform="matrix(0.935 0.3546 -0.3546 0.935 123.0432 163.358)" class="st2 st3">o</text>
<text transform="matrix(0.935 0.3546 -0.3546 0.935 127.25 164.9539)" class="st2 st3">o</text>
<text transform="matrix(0.935 0.3546 -0.3546 0.935 131.465 166.5524)" class="st2 st3">l</text>
<text transform="matrix(0.935 0.3546 -0.3546 0.935 134.2482 167.608)" class="st2 st3">s</text>
<text transform="matrix(0.6631 0.7485 -0.7485 0.6631 100.6016 102.0348)" class="st2 st3">A</text>
<text transform="matrix(0.6631 0.7485 -0.7485 0.6631 104.6403 106.5933)" class="st2 st3">c</text>
<text transform="matrix(0.6631 0.7485 -0.7485 0.6631 108.4098 110.8473)" class="st2 st3">c</text>
<text transform="matrix(0.6631 0.7485 -0.7485 0.6631 112.2007 115.1266)" class="st2 st3">e</text>
<text transform="matrix(0.6631 0.7485 -0.7485 0.6631 115.5095 118.8639)" class="st2 st3">s</text>
<text transform="matrix(0.6631 0.7485 -0.7485 0.6631 118.9655 122.7633)" class="st2 st3">s</text>
<text transform="matrix(0.6631 0.7485 -0.7485 0.6631 122.4186 126.6608)" class="st2 st3">i</text>
<text transform="matrix(0.6631 0.7485 -0.7485 0.6631 124.2052 128.6773)" class="st2 st3">n</text>
<text transform="matrix(0.6631 0.7485 -0.7485 0.6631 127.9205 132.8717)" class="st2 st3">g</text>
<text transform="matrix(0.6631 0.7485 -0.7485 0.6631 133.8186 139.5299)" class="st2 st3">D</text>
<text transform="matrix(0.6631 0.7485 -0.7485 0.6631 137.7751 143.9949)" class="st2 st3">a</text>
<text transform="matrix(0.6631 0.7485 -0.7485 0.6631 141.4856 148.1842)" class="st2 st3">t</text>
<text transform="matrix(0.6631 0.7485 -0.7485 0.6631 145.1447 152.3112)" class="st2 st3">a</text>
<text transform="matrix(0.2393 0.9709 -0.9709 0.2393 146.3091 81.1354)" class="st2 st3">I</text>
<text transform="matrix(0.2393 0.9709 -0.9709 0.2393 147.2246 84.8512)" class="st2 st3">n</text>
<text transform="matrix(0.2393 0.9709 -0.9709 0.2393 148.6389 90.5866)" class="st2 st3">f</text>
<text transform="matrix(0.2393 0.9709 -0.9709 0.2393 149.8384 95.4528)" class="st2 st3">o</text>
<text transform="matrix(0.2393 0.9709 -0.9709 0.2393 152.1866 104.98)" class="st2 st3">O</text>
<text transform="matrix(0.2393 0.9709 -0.9709 0.2393 153.8735 111.8248)" class="st2 st3">v</text>
<text transform="matrix(0.2393 0.9709 -0.9709 0.2393 155.3351 117.7544)" class="st2 st3">e</text>
<text transform="matrix(0.2393 0.9709 -0.9709 0.2393 156.6019 122.8942)" class="st2 st3">r</text>
<text transform="matrix(0.2393 0.9709 -0.9709 0.2393 157.9212 128.2467)" class="st2 st3">l</text>
<text transform="matrix(0.2393 0.9709 -0.9709 0.2393 158.9965 132.611)" class="st2 st3">o</text>
<text transform="matrix(0.2393 0.9709 -0.9709 0.2393 160.4322 138.4362)" class="st2 st3">a</text>
<text transform="matrix(0.2393 0.9709 -0.9709 0.2393 161.8483 144.1793)" class="st2 st3">d</text>
<text transform="matrix(0.2393 -0.9709 0.9709 0.2393 179.17 148.6808)" class="st2 st3">L</text>
<text transform="matrix(0.2393 -0.9709 0.9709 0.2393 180.0636 145.0573)" class="st2 st3">a</text>
<text transform="matrix(0.2393 -0.9709 0.9709 0.2393 181.1183 140.7786)" class="st2 st3">c</text>
<text transform="matrix(0.2393 -0.9709 0.9709 0.2393 182.1944 136.4128)" class="st2 st3">k</text>
<text transform="matrix(0.2393 -0.9709 0.9709 0.2393 183.8232 129.8036)" class="st2 st3">C</text>
<text transform="matrix(0.2393 -0.9709 0.9709 0.2393 185.1358 124.478)" class="st2 st3">o</text>
<text transform="matrix(0.2393 -0.9709 0.9709 0.2393 186.2121 120.1125)" class="st2 st3">ll</text>
<text transform="matrix(0.2393 -0.9709 0.9709 0.2393 187.2452 115.9218)" class="st2 st3">a</text>
<text transform="matrix(0.2393 -0.9709 0.9709 0.2393 188.298 111.6493)" class="st2 st3">b</text>
<text transform="matrix(0.2393 -0.9709 0.9709 0.2393 189.2579 107.7538)" class="st2 st3">o</text>
<text transform="matrix(0.2393 -0.9709 0.9709 0.2393 190.3321 103.3982)" class="st2 st3">r</text>
<text transform="matrix(0.2393 -0.9709 0.9709 0.2393 191.2892 99.5143)" class="st2 st3">a</text>
<text transform="matrix(0.2393 -0.9709 0.9709 0.2393 192.3468 95.2232)" class="st2 st3">t</text>
<text transform="matrix(0.2393 -0.9709 0.9709 0.2393 193.3722 91.0632)" class="st2 st3">i</text>
<text transform="matrix(0.2393 -0.9709 0.9709 0.2393 193.7374 89.58)" class="st2 st3">o</text>
<text transform="matrix(0.2393 -0.9709 0.9709 0.2393 194.8116 85.2241)" class="st2 st3">n</text>
<text transform="matrix(0.6631 -0.7485 0.7485 0.6631 193.5753 156.1591)" class="st2 st3">L</text>
<text transform="matrix(0.6631 -0.7485 0.7485 0.6631 196.0518 153.3661)" class="st2 st3">a</text>
<text transform="matrix(0.6631 -0.7485 0.7485 0.6631 198.9748 150.0665)" class="st2 st3">c</text>
<text transform="matrix(0.6631 -0.7485 0.7485 0.6631 201.9571 146.7)" class="st2 st3">k</text>
<text transform="matrix(0.6631 -0.7485 0.7485 0.6631 206.4698 141.6049)" class="st2 st3">O</text>
<text transform="matrix(0.6631 -0.7485 0.7485 0.6631 210.169 137.4296)" class="st2 st3">f</text>
<text transform="matrix(0.6631 -0.7485 0.7485 0.6631 214.003 133.1016)" class="st2 st3">M</text>
<text transform="matrix(0.6631 -0.7485 0.7485 0.6631 217.9522 128.6441)" class="st2 st3">e</text>
<text transform="matrix(0.6631 -0.7485 0.7485 0.6631 220.4718 125.8003)" class="st2 st3">n</text>
<text transform="matrix(0.6631 -0.7485 0.7485 0.6631 223.3956 122.4998)" class="st2 st3">t</text>
<text transform="matrix(0.6631 -0.7485 0.7485 0.6631 226.2561 119.2717)" class="st2 st3">o</text>
<text transform="matrix(0.6631 -0.7485 0.7485 0.6631 229.2307 115.9133)" class="st2 st3">r</text>
<text transform="matrix(0.6631 -0.7485 0.7485 0.6631 231.8907 112.91)" class="st2 st3">s</text>
<text transform="matrix(0.6631 -0.7485 0.7485 0.6631 234.5391 109.9218)" class="st2 st3">h</text>
<text transform="matrix(0.6631 -0.7485 0.7485 0.6631 237.0596 107.0757)" class="st2 st3">i</text>
<text transform="matrix(0.6631 -0.7485 0.7485 0.6631 238.0598 105.9483)" class="st2 st3">p</text>
<text transform="matrix(0.935 -0.3546 0.3546 0.935 203.2219 169.3738)" class="st2 st3">L</text>
<text transform="matrix(0.935 -0.3546 0.3546 0.935 206.9776 167.9489)" class="st2 st3">o</text>
<text transform="matrix(0.935 -0.3546 0.3546 0.935 211.4845 166.2408)" class="st2 st3">w</text>
<text transform="matrix(0.935 -0.3546 0.3546 0.935 218.8819 163.4343)" class="st2 st3">D</text>
<text transform="matrix(0.935 -0.3546 0.3546 0.935 223.6046 161.6441)" class="st2 st3">a</text>
<text transform="matrix(0.935 -0.3546 0.3546 0.935 227.9943 159.9791)" class="st2 st3">t</text>
<text transform="matrix(0.935 -0.3546 0.3546 0.935 232.2979 158.3463)" class="st2 st3">a</text>
<text transform="matrix(0.935 -0.3546 0.3546 0.935 239.1201 155.7595)" class="st2 st3">L</text>
<text transform="matrix(0.935 -0.3546 0.3546 0.935 242.8956 154.3277)" class="st2 st3">i</text>
<text transform="matrix(0.935 -0.3546 0.3546 0.935 244.5665 153.6949)" class="st2 st3">t</text>
<text transform="matrix(0.935 -0.3546 0.3546 0.935 248.883 152.0574)" class="st2 st3">e</text>
<text transform="matrix(0.935 -0.3546 0.3546 0.935 252.7199 150.6011)" class="st2 st3">r</text>
<text transform="matrix(0.935 -0.3546 0.3546 0.935 256.7423 149.0767)" class="st2 st3">a</text>
<text transform="matrix(0.935 -0.3546 0.3546 0.935 261.1378 147.4088)" class="st2 st3">c</text>
<text transform="matrix(0.935 -0.3546 0.3546 0.935 265.6271 145.7076)" class="st2 st3">y</text>
<text transform="matrix(0.9927 0.1205 -0.1205 0.9927 206.2325 185.8394)" class="st2 st3">N</text>
<text transform="matrix(0.9927 0.1205 -0.1205 0.9927 212.922 186.6521)" class="st2 st3">o</text>
<text transform="matrix(0.9927 0.1205 -0.1205 0.9927 218.7628 187.3609)" class="st2 st3">t</text>
<text transform="matrix(0.9927 0.1205 -0.1205 0.9927 228.1086 188.4957)" class="st2 st3">R</text>
<text transform="matrix(0.9927 0.1205 -0.1205 0.9927 234.0001 189.2116)" class="st2 st3">e</text>
<text transform="matrix(0.9927 0.1205 -0.1205 0.9927 239.1778 189.8405)" class="st2 st3">s</text>
<text transform="matrix(0.9927 0.1205 -0.1205 0.9927 244.544 190.4909)" class="st2 st3">p</text>
<text transform="matrix(0.9927 0.1205 -0.1205 0.9927 249.5861 191.1041)" class="st2 st3">e</text>
<text transform="matrix(0.9927 0.1206 -0.1206 0.9927 254.754 191.7312)" class="st2 st3">c</text>
<text transform="matrix(0.9927 0.1206 -0.1206 0.9927 260.629 192.444)" class="st2 st3">t</text>
<text transform="matrix(0.9927 0.1205 -0.1205 0.9927 266.2911 193.1326)" class="st2 st3">e</text>
<text transform="matrix(0.9927 0.1205 -0.1205 0.9927 271.463 193.7605)" class="st2 st3">d</text>
<text transform="matrix(0.4647 0.8855 -0.8855 0.4647 187.9653 213.7731)" class="st2 st3">N</text>
<text transform="matrix(0.4647 0.8855 -0.8855 0.4647 190.6778 218.94)" class="st2 st3">o</text>
<text transform="matrix(0.4647 0.8855 -0.8855 0.4647 192.9993 223.3629)" class="st2 st3">n</text>
<text transform="matrix(0.4647 0.8855 -0.8855 0.4647 195.2776 227.7037)" class="st2 st3">-</text>
<text transform="matrix(0.4647 0.8855 -0.8855 0.4647 197.3909 231.732)" class="st2 st3">V</text>
<text transform="matrix(0.4647 0.8855 -0.8855 0.4647 200.2421 237.1647)" class="st2 st3">i</text>
<text transform="matrix(0.4647 0.8855 -0.8855 0.4647 201.1593 238.9119)" class="st2 st3">z</text>
<text transform="matrix(0.4647 0.8854 -0.8854 0.4647 204.7886 245.8258)" class="st2 st3">A</text>
<text transform="matrix(0.4647 0.8855 -0.8855 0.4647 207.2963 250.6032)" class="st2 st3">c</text>
<text transform="matrix(0.4647 0.8854 -0.8854 0.4647 209.6264 255.0426)" class="st2 st3">t</text>
<text transform="matrix(0.4647 0.8854 -0.8854 0.4647 211.854 259.2878)" class="st2 st3">i</text>
<text transform="matrix(0.4647 0.8855 -0.8855 0.4647 212.7818 261.0543)" class="st2 st3">v</text>
<text transform="matrix(0.4647 0.8854 -0.8854 0.4647 215.1461 265.5622)" class="st2 st3">i</text>
<text transform="matrix(0.4647 0.8855 -0.8855 0.4647 216.0804 267.3414)" class="st2 st3">t</text>
<text transform="matrix(0.4647 0.8854 -0.8854 0.4647 218.3116 271.5914)" class="st2 st3">y</text>
<text transform="matrix(6.123234e-17 1 -1 6.123234e-17 171.0645 218.0348)" class="st2 st3">D</text>
<text transform="matrix(6.123234e-17 1 -1 6.123234e-17 171.0645 225.0993)" class="st2 st3">a</text>
<text transform="matrix(6.123234e-17 1 -1 6.123234e-17 171.0645 231.8043)" class="st2 st3">t</text>
<text transform="matrix(6.123234e-17 1 -1 6.123234e-17 171.0645 238.4225)" class="st2 st3">a</text>
<text transform="matrix(6.123234e-17 1 -1 6.123234e-17 171.0645 245.1061)" class="st2 st3"> </text>
<text transform="matrix(6.123234e-17 1 -1 6.123234e-17 171.0645 249.7077)" class="st2 st3">V</text>
<text transform="matrix(6.123234e-17 1 -1 6.123234e-17 171.0645 257.6295)" class="st2 st3">o</text>
<text transform="matrix(6.123234e-17 1 -1 6.123234e-17 171.0645 264.4557)" class="st2 st3">l</text>
<text transform="matrix(6.123234e-17 1 -1 6.123234e-17 171.0645 269.7369)" class="st2 st3">u</text>
<text transform="matrix(6.123234e-17 1 -1 6.123234e-17 171.0645 276.5358)" class="st2 st3">m</text>
<text transform="matrix(6.123234e-17 1 -1 6.123234e-17 171.0645 283.65)" class="st2 st3">e</text>
<text transform="matrix(1 0 0 1 148.3462 178.0729)" class="st2 st4">Chal-</text>
<text transform="matrix(1 0 0 1 148.3462 178.0729)" class="st5 st2 st4">Chal-</text>
<text transform="matrix(1 0 0 1 145.5845 192.8522)" class="st2 st4">lenges</text>
<text transform="matrix(1 0 0 1 145.5845 192.8522)" class="st5 st2 st4">lenges</text>
<text transform="matrix(0.823 0.5681 -0.5681 0.823 200.638 201.9829)" class="st2 st3">T</text>
<text transform="matrix(0.823 0.5681 -0.5681 0.823 204.72 204.8003)" class="st2 st3">o</text>
<text transform="matrix(0.823 0.5681 -0.5681 0.823 208.6825 207.5369)" class="st2 st3">o</text>
<text transform="matrix(0.823 0.5681 -0.5681 0.823 212.636 210.2654)" class="st2 st3">l</text>
<text transform="matrix(0.823 0.5681 -0.5681 0.823 215.3577 212.1443)" class="st2 st3">s</text>
<text transform="matrix(0.823 0.5681 -0.5681 0.823 218.8866 214.5789)" class="st2 st3">’</text>
<text transform="matrix(0.823 0.5681 -0.5681 0.823 223.0969 217.486)" class="st2 st3">T</text>
<text transform="matrix(0.823 0.5681 -0.5681 0.823 227.1858 220.3074)" class="st2 st3">e</text>
<text transform="matrix(0.823 0.5681 -0.5681 0.823 230.5565 222.6354)" class="st2 st3">c</text>
<text transform="matrix(0.823 0.5681 -0.5681 0.823 234.5228 225.3716)" class="st2 st3">h</text>
<text transform="matrix(0.823 0.5681 -0.5681 0.823 240.0391 229.1793)" class="st2 st3">L</text>
<text transform="matrix(0.823 0.5681 -0.5681 0.823 243.3485 231.4655)" class="st2 st3">i</text>
<text transform="matrix(0.823 0.5681 -0.5681 0.823 244.8361 232.4908)" class="st2 st3">m</text>
<text transform="matrix(0.823 0.5681 -0.5681 0.823 249.0273 235.3843)" class="st2 st3">i</text>
<text transform="matrix(0.823 0.5681 -0.5681 0.823 250.5 236.401)" class="st2 st3">t</text>
<text transform="matrix(0.823 0.5681 -0.5681 0.823 254.2894 239.0153)" class="st2 st3">s</text>
<text transform="matrix(0.1962 -0.9806 0.9806 0.1962 51.5063 163.3612)" class="st2 st6">P</text>
<text transform="matrix(0.262 -0.9651 0.9651 0.262 53.2905 154.5416)" class="st2 st6">r</text>
<text transform="matrix(0.3026 -0.9531 0.9531 0.3026 55.3064 147.2988)" class="st2 st6">i</text>
<text transform="matrix(0.3463 -0.9381 0.9381 0.3463 56.0665 144.6722)" class="st2 st6">o</text>
<text transform="matrix(0.4071 -0.9134 0.9134 0.4071 58.9867 136.79)" class="st2 st6">r</text>
<text transform="matrix(0.4453 -0.8954 0.8954 0.4453 62.0748 129.9761)" class="st2 st6">i</text>
<text transform="matrix(0.4852 -0.8744 0.8744 0.4852 63.2486 127.4752)" class="st2 st6">t</text>
<text transform="matrix(0.5389 -0.8424 0.8424 0.5389 67.1409 120.4764)" class="st2 st6">y</text>
<text transform="matrix(0.6154 -0.7882 0.7882 0.6154 73.4287 111.0091)" class="st2 st6">F</text>
<text transform="matrix(0.664 -0.7478 0.7478 0.664 77.694 105.4998)" class="st2 st6">o</text>
<text transform="matrix(0.711 -0.7032 0.7032 0.711 83.2959 99.205)" class="st2 st6">r</text>
<text transform="matrix(0.7665 -0.6422 0.6422 0.7665 91.8213 91.1027)" class="st2 st6">I</text>
<text transform="matrix(0.8005 -0.5994 0.5994 0.8005 95.1062 88.261)" class="st2 st6">m</text>
<text transform="matrix(0.8379 -0.5458 0.5458 0.8379 102.3073 82.9031)" class="st2 st6">p</text>
<text transform="matrix(0.8688 -0.4952 0.4952 0.8688 108.058 79.1386)" class="st2 st6">r</text>
<text transform="matrix(0.8994 -0.4371 0.4371 0.8994 114.512 75.4331)" class="st2 st6">o</text>
<text transform="matrix(0.9279 -0.3727 0.3727 0.9279 122.0545 71.756)" class="st2 st6">v</text>
<text transform="matrix(0.9445 -0.3286 0.3286 0.9445 130.1056 68.5938)" class="st2 st6">i</text>
<text transform="matrix(0.9584 -0.2854 0.2854 0.9584 132.643 67.6412)" class="st2 st6">n</text>
<text transform="matrix(0.9752 -0.2213 0.2213 0.9752 140.5241 65.2942)" class="st2 st6">g</text>
<text transform="matrix(0.9929 -0.1191 0.1191 0.9929 152.3512 62.7983)" class="st2 st6">D</text>
<text transform="matrix(0.9988 -4.947559e-02 4.947559e-02 0.9988 161.1476 61.7477)" class="st2 st6">a</text>
<text transform="matrix(0.9999 1.704755e-02 -1.704755e-02 0.9999 169.3597 61.3366)" class="st2 st6">t</text>
<text transform="matrix(0.9965 8.346218e-02 -8.346218e-02 0.9965 177.3897 61.4644)" class="st2 st6">a</text>
<text transform="matrix(0.981 0.194 -0.194 0.981 189.7923 62.6643)" class="st2 st6">V</text>
<text transform="matrix(0.969 0.2471 -0.2471 0.969 200.1311 64.8129)" class="st2 st6">i</text>
<text transform="matrix(0.9566 0.2914 -0.2914 0.9566 202.7797 65.4164)" class="st2 st6">z</text>
<text transform="matrix(0.9206 0.3906 -0.3906 0.9206 214.8584 69.3164)" class="st2 st6">S</text>
<text transform="matrix(0.8909 0.4542 -0.4542 0.8909 222.7359 72.6528)" class="st2 st6">k</text>
<text transform="matrix(0.8689 0.495 -0.495 0.8689 230.2367 76.5477)" class="st2 st6">i</text>
<text transform="matrix(0.8458 0.5335 -0.5335 0.8458 232.6293 77.8377)" class="st2 st6">ll</text>
<text transform="matrix(0.8098 0.5867 -0.5867 0.8098 239.4356 82.1346)" class="st2 st6">s</text>
</svg>
