<?xml version="1.0" encoding="utf-8"?>
<!-- Generator: Adobe Illustrator 28.3.0, SVG Export Plug-In . SVG Version: 6.00 Build 0)  -->
<svg version="1.1" id="Variable-1" xmlns="http://www.w3.org/2000/svg" xmlns:xlink="http://www.w3.org/1999/xlink" x="0px" y="0px"
	 viewBox="0 0 353.1 335.5" style="enable-background:new 0 0 353.1 335.5;" xml:space="preserve">
<style type="text/css">
	.st0{fill:none;stroke:#D6D6D6;stroke-miterlimit:10;}
	.st1{fill:#FFFFFF;stroke:#D6D6D6;stroke-miterlimit:10;}
	.st2{font-family:'PatrickHandSC-Regular';}
	.st3{font-size:16px;}
	.st4{fill:none;stroke:#D6D6D6;stroke-width:0.5;stroke-linecap:round;stroke-linejoin:round;}
	.st5{fill:none;stroke:#D6D6D6;stroke-width:0.5;stroke-linecap:round;stroke-linejoin:round;stroke-dasharray:0,0,4.0349,4.0349;}
	.st6{fill:#EC6143;}
	.st7{fill:#F4774F;}
	.st8{fill:#FA8B5C;}
	.st9{fill:#FCA16C;}
	.st10{font-size:14px;}
	.st11{fill:none;stroke:#000000;stroke-linecap:round;stroke-linejoin:round;}
</style>
<g id="Bottom">
	<circle class="st0" cx="171" cy="181.5" r="113.3"/>
	<circle class="st1" cx="171" cy="181.5" r="113.3"/>
</g>
<g id="_1_Group">
	<text transform="matrix(0.9405 -0.3397 0.3397 0.9405 127.3814 69.5873)" class="st2 st3">1</text>
	<text transform="matrix(0.9526 -0.3043 0.3043 0.9526 132.7589 67.6665)" class="st2 st3">.</text>
	<text transform="matrix(0.9736 -0.2283 0.2283 0.9736 139.3254 65.6017)" class="st2 st3">C</text>
	<text transform="matrix(0.9855 -0.1696 0.1696 0.9855 147.7249 63.6695)" class="st2 st3">h</text>
	<text transform="matrix(0.9931 -0.1172 0.1172 0.9931 153.5928 62.6433)" class="st2 st3">a</text>
	<text transform="matrix(0.9981 -6.139347e-02 6.139347e-02 0.9981 160.4547 61.8324)" class="st2 st3">ll</text>
	<text transform="matrix(1 -9.592183e-03 9.592183e-03 1 167.1793 61.4251)" class="st2 st3">e</text>
	<text transform="matrix(0.9991 4.292540e-02 -4.292540e-02 0.9991 173.1171 61.3518)" class="st2 st3">n</text>
	<text transform="matrix(0.9952 9.795114e-02 -9.795114e-02 0.9952 180.0072 61.6478)" class="st2 st3">g</text>
	<text transform="matrix(0.9888 0.149 -0.149 0.9888 186.5811 62.3006)" class="st2 st3">e</text>
	<text transform="matrix(0.9801 0.1984 -0.1984 0.9801 192.4653 63.1796)" class="st2 st3">s</text>
	<g id="_1._Axes">
		<line class="st4" x1="170.7" y1="181.1" x2="170.2" y2="179.2"/>
		<line class="st5" x1="169.2" y1="175.3" x2="144.6" y2="75.4"/>
		<line class="st4" x1="144.1" y1="73.4" x2="143.6" y2="71.5"/>
		<line class="st4" x1="170.7" y1="181.1" x2="171.1" y2="179.2"/>
		<line class="st5" x1="172.1" y1="175.3" x2="196.7" y2="75.4"/>
		<line class="st4" x1="197.2" y1="73.4" x2="197.7" y2="71.5"/>
		<line class="st4" x1="170.7" y1="181.1" x2="172" y2="179.6"/>
		<line class="st5" x1="174.7" y1="176.6" x2="242.9" y2="99.6"/>
		<line class="st4" x1="244.2" y1="98.1" x2="245.6" y2="96.6"/>
		<line class="st4" x1="170.7" y1="181.1" x2="172.5" y2="180.4"/>
		<line class="st5" x1="176.3" y1="179" x2="272.5" y2="142.5"/>
		<line class="st4" x1="274.4" y1="141.8" x2="276.3" y2="141.1"/>
	</g>
	<g id="_1._Bars">
		<path class="st6" d="M130.6,95.6c11.1-5.1,23-8.1,35.2-8.7l4.6,94.3L130.6,95.6L130.6,95.6z"/>
		<path class="st7" d="M173.9,109.1c9.3,0.5,18.5,2.7,26.9,6.6l-30.4,65.5L173.9,109.1L173.9,109.1z"/>
		<path class="st8" d="M213.5,108c9.5,5.6,17.8,12.9,24.4,21.6l-67.5,51.6L213.5,108L213.5,108z"/>
		<path class="st9" d="M215.8,153.1c3.6,5.9,6.1,12.4,7.3,19.2l-52.6,9L215.8,153.1z"/>
	</g>
	<path id="_1_color" class="st8" d="M170.4,75.4c52.4,0,95.9,38.1,104.3,88l7.9-1.4C273.5,108.7,227,68.2,171,68.2
		c-17.2,0-33.4,3.8-48,10.7l2.9,6.3C139.4,78.9,154.5,75.4,170.4,75.4L170.4,75.4z"/>
</g>
<circle id="Outside_Stroke" class="st0" cx="171" cy="181.5" r="113.3"/>
<g id="_1">
	<circle class="st1" cx="124.4" cy="83" r="8.1"/>
	<text transform="matrix(1 0 0 1 120.5065 87.6383)" class="st8 st2 st10">1</text>
</g>
<text transform="matrix(0.9865 -0.1637 0.1637 0.9865 173.1566 217.9412)" class="st2 st3">Relative Impact Score</text>
<text transform="matrix(0.9865 -0.1637 0.1637 0.9865 170.42 200.0775)" class="st2 st3">Radius =</text>
<polyline class="st11" points="171.3,181.9 283.2,162.7 280.4,160.1 "/>
<line class="st11" x1="281" y1="165.6" x2="283.2" y2="162.7"/>
</svg>
