<?xml version="1.0" encoding="UTF-8"?><svg id="Variable-1" xmlns="http://www.w3.org/2000/svg" xmlns:xlink="http://www.w3.org/1999/xlink" viewBox="0 0 353.0708 335.4946"><defs><style>.cls-1,.cls-2,.cls-3,.cls-4{stroke-width:0px;}.cls-1,.cls-5{fill:#fa8b5c;}.cls-6{stroke:#000;}.cls-6,.cls-7,.cls-8,.cls-9{stroke-linecap:round;stroke-linejoin:round;}.cls-6,.cls-7,.cls-8,.cls-9,.cls-10,.cls-11{fill:none;}.cls-12{letter-spacing:.03em;}.cls-12,.cls-13{fill:#000;font-size:16px;}.cls-12,.cls-13,.cls-5{font-family:PatrickHandSC-Regular, 'Patrick Hand SC';}.cls-7,.cls-14,.cls-8,.cls-9,.cls-10,.cls-11{stroke:#d6d6d6;}.cls-7,.cls-8,.cls-9{stroke-width:.5px;}.cls-2{fill:#ec6143;}.cls-3{fill:#fca16c;}.cls-5{font-size:14px;letter-spacing:.03em;}.cls-14{fill:#fff;}.cls-14,.cls-10,.cls-11{stroke-miterlimit:10;}.cls-8{stroke-dasharray:0 0 4.0349 4.0349;}.cls-9{stroke-dasharray:0 0 4.0349 4.0349;}.cls-10{filter:url(#drop-shadow-1);}.cls-4{fill:#f4774f;}</style><filter id="drop-shadow-1" filterUnits="userSpaceOnUse"><feOffset dx="0" dy="0"/><feGaussianBlur result="blur" stdDeviation="10"/><feFlood flood-color="#000" flood-opacity="1"/><feComposite in2="blur" operator="in"/><feComposite in="SourceGraphic"/></filter></defs><g id="Bottom"><circle class="cls-10" cx="171.0415" cy="191.4947" r="113.3177"/><circle class="cls-14" cx="171.0415" cy="191.4947" r="113.3177"/></g><g id="_1_Group"><text class="cls-13" transform="translate(51.593 173.2843) rotate(-79.9402)"><tspan x="0" y="0"> </tspan></text><text class="cls-13" transform="translate(52.2212 169.7359) rotate(-78.2452)"><tspan x="0" y="0"> </tspan></text><text class="cls-13" transform="translate(52.9552 166.2049) rotate(-76.5464)"><tspan x="0" y="0"> </tspan></text><text class="cls-13" transform="translate(53.7887 162.7147) rotate(-74.8542)"><tspan x="0" y="0"> </tspan></text><text class="cls-13" transform="translate(54.7326 159.2242) rotate(-73.1471)"><tspan x="0" y="0"> </tspan></text><text class="cls-13" transform="translate(55.7747 155.7797) rotate(-71.4453)"><tspan x="0" y="0"> </tspan></text><text class="cls-13" transform="translate(56.9204 152.3612) rotate(-69.7385)"><tspan x="0" y="0"> </tspan></text><text class="cls-13" transform="translate(58.162 148.9936) rotate(-68.0375)"><tspan x="0" y="0"> </tspan></text><text class="cls-13" transform="translate(59.5149 145.6355) rotate(-66.3198)"><tspan x="0" y="0"> </tspan></text><text class="cls-13" transform="translate(60.9524 142.3534) rotate(-64.6163)"><tspan x="0" y="0"> </tspan></text><text class="cls-13" transform="translate(62.5015 139.086) rotate(-62.8983)"><tspan x="0" y="0"> </tspan></text><text class="cls-13" transform="translate(64.1427 135.8783) rotate(-61.1839)"><tspan x="0" y="0"> </tspan></text><text class="cls-13" transform="translate(65.8851 132.7109) rotate(-59.4641)"><tspan x="0" y="0"> </tspan></text><text class="cls-13" transform="translate(67.715 129.6048) rotate(-57.7492)"><tspan x="0" y="0"> </tspan></text><text class="cls-13" transform="translate(69.6333 126.5645) rotate(-56.0401)"><tspan x="0" y="0"> </tspan></text><text class="cls-13" transform="translate(71.6484 123.5687) rotate(-54.3256)"><tspan x="0" y="0"> </tspan></text><text class="cls-13" transform="translate(73.7495 120.6423) rotate(-52.6179)"><tspan x="0" y="0"> </tspan></text><text class="cls-13" transform="translate(75.9163 117.8015) rotate(-50.9292)"><tspan x="0" y="0"> </tspan></text><text class="cls-13" transform="translate(78.1933 114.994) rotate(-49.2252)"><tspan x="0" y="0"> </tspan></text><text class="cls-13" transform="translate(80.5512 112.2594) rotate(-47.5285)"><tspan x="0" y="0"> </tspan></text><text class="cls-13" transform="translate(82.9867 109.5979) rotate(-45.8418)"><tspan x="0" y="0"> </tspan></text><text class="cls-13" transform="translate(85.4977 107.0101) rotate(-44.1647)"><tspan x="0" y="0"> </tspan></text><text class="cls-13" transform="translate(88.0557 104.5082) rotate(-42.123)"><tspan x="0" y="0"> </tspan></text><text class="cls-13" transform="translate(90.7268 102.0743) rotate(-40.8296)"><tspan x="0" y="0"> </tspan></text><text class="cls-13" transform="translate(93.4611 99.7096) rotate(-39.141)"><tspan x="0" y="0"> </tspan></text><text class="cls-13" transform="translate(96.247 97.4397) rotate(-37.4553)"><tspan x="0" y="0"> </tspan></text><text class="cls-13" transform="translate(99.1028 95.2516) rotate(-35.7614)"><tspan x="0" y="0"> </tspan></text><text class="cls-13" transform="translate(102.0446 93.1314) rotate(-34.0481)"><tspan x="0" y="0"> </tspan></text><text class="cls-13" transform="translate(105.0343 91.1108) rotate(-32.3386)"><tspan x="0" y="0"> </tspan></text><text class="cls-13" transform="translate(108.0681 89.188) rotate(-30.635)"><tspan x="0" y="0"> </tspan></text><text class="cls-13" transform="translate(111.1648 87.3521) rotate(-28.9241)"><tspan x="0" y="0"> </tspan></text><text class="cls-13" transform="translate(114.3028 85.6166) rotate(-27.2187)"><tspan x="0" y="0"> </tspan></text><text class="cls-13" transform="translate(117.5215 83.9608) rotate(-25.497)"><tspan x="0" y="0"> </tspan></text><text class="cls-13" transform="translate(120.777 82.4069) rotate(-23.78)"><tspan x="0" y="0"> </tspan></text><text class="cls-13" transform="translate(124.0673 80.9554) rotate(-22.0702)"><tspan x="0" y="0"> </tspan></text><text class="cls-13" transform="translate(127.3813 79.5874) rotate(-19.8614)"><tspan x="0" y="0">1</tspan></text><text class="cls-13" transform="translate(132.7591 77.6665) rotate(-17.7181)"><tspan x="0" y="0">.</tspan></text><text class="cls-13" transform="translate(135.9437 76.6452) rotate(-16.0711)"><tspan x="0" y="0"> </tspan></text><text class="cls-13" transform="translate(139.3253 75.6017) rotate(-13.1956)"><tspan x="0" y="0">C</tspan></text><text class="cls-13" transform="translate(147.7249 73.6696) rotate(-9.762)"><tspan x="0" y="0">h</tspan></text><text class="cls-13" transform="translate(153.5928 72.6433) rotate(-6.7322)"><tspan x="0" y="0">a</tspan></text><text class="cls-13" transform="translate(160.4547 71.8324) rotate(-3.5198)"><tspan x="0" y="0">ll</tspan></text><text class="cls-13" transform="translate(167.1793 71.4251) rotate(-.5496)"><tspan x="0" y="0">e</tspan></text><text class="cls-13" transform="translate(173.1171 71.3518) rotate(2.4602)"><tspan x="0" y="0">n</tspan></text><text class="cls-13" transform="translate(180.0072 71.6478) rotate(5.6212)"><tspan x="0" y="0">g</tspan></text><text class="cls-13" transform="translate(186.5811 72.3007) rotate(8.5714)"><tspan x="0" y="0">e</tspan></text><text class="cls-13" transform="translate(192.4653 73.1796) rotate(11.4441)"><tspan x="0" y="0">s</tspan></text><text class="cls-13" transform="translate(198.6265 74.4532) rotate(13.7667)"><tspan x="0" y="0"> </tspan></text><g id="_1._Axes"><line class="cls-7" x1="170.6664" y1="191.1196" x2="170.1877" y2="189.1777"/><line class="cls-9" x1="169.2221" y1="185.26" x2="144.5989" y2="85.3597"/><line class="cls-7" x1="144.1161" y1="83.4009" x2="143.6375" y2="81.459"/><line class="cls-7" x1="170.6664" y1="191.1196" x2="171.145" y2="189.1777"/><line class="cls-9" x1="172.1106" y1="185.26" x2="196.7338" y2="85.3597"/><line class="cls-7" x1="197.2166" y1="83.4009" x2="197.6953" y2="81.459"/><line class="cls-7" x1="170.6664" y1="191.1196" x2="171.9926" y2="189.6225"/><line class="cls-8" x1="174.6682" y1="186.6024" x2="242.897" y2="109.5881"/><line class="cls-7" x1="244.2348" y1="108.078" x2="245.5611" y2="106.5809"/><line class="cls-7" x1="170.6664" y1="191.1196" x2="172.5364" y2="190.4104"/><line class="cls-9" x1="176.3091" y1="188.9796" x2="272.513" y2="152.4942"/><line class="cls-7" x1="274.3994" y1="151.7788" x2="276.2694" y2="151.0696"/></g><g id="_1._Bars"><path class="cls-2" d="M130.6341,105.5587c11.0741-5.1458,23.041-8.0952,35.238-8.685l4.563,94.338-39.801-85.653Z"/><path class="cls-4" d="M173.9231,119.0926c9.3241.4511,18.4723,2.7061,26.938,6.64l-30.426,65.479,3.488-72.119Z"/><path class="cls-1" d="M213.4901,118.0057c9.4648,5.5667,17.7602,12.9161,24.427,21.641l-67.482,51.565,43.055-73.206Z"/><path class="cls-3" d="M215.7551,163.0617c3.6397,5.8593,6.1086,12.3688,7.27,19.168l-52.59,8.982,45.32-28.15Z"/></g><path id="_1_color" class="cls-1" d="M170.4351,85.3774c52.377,0,95.8601,38.0503,104.3328,88.0148l7.9214-1.353c-9.2256-53.3126-55.6986-93.8622-111.6477-93.8622-17.1716,0-33.447,3.8267-48.0312,10.6623l2.8926,6.3435c13.5372-6.2884,28.6228-9.8054,44.5322-9.8054Z"/></g><circle id="Outside_Stroke" class="cls-11" cx="171.0415" cy="191.4947" r="113.3177"/><g id="_1"><circle class="cls-14" cx="124.4243" cy="92.9578" r="8.0718"/><text class="cls-5" transform="translate(120.5065 97.6383)"><tspan x="0" y="0">1</tspan></text></g><text class="cls-12" transform="translate(173.1566 227.9411) rotate(-9.4225)"><tspan x="0" y="0">Relative Impact Score</tspan></text><text class="cls-12" transform="translate(170.4201 210.0775) rotate(-9.4225)"><tspan x="0" y="0">Radius = </tspan></text><polyline class="cls-6" points="171.2781 191.9033 283.2468 172.707 280.3913 170.1107"/><line class="cls-6" x1="280.9584" y1="175.6491" x2="283.2468" y2="172.707"/></svg>