<?xml version="1.0" encoding="UTF-8"?><svg id="Base" xmlns="http://www.w3.org/2000/svg" xmlns:xlink="http://www.w3.org/1999/xlink" viewBox="0 0 353.0708 335.4946"><defs><style>.cls-1{font-size:22.2696px;stroke:#000;stroke-width:.25px;}.cls-1,.cls-2,.cls-3{fill:#000;font-family:PatrickHandSC-Regular, 'Patrick Hand SC';}.cls-1,.cls-4,.cls-5{stroke-miterlimit:10;}.cls-2{font-size:10px;}.cls-4{fill:#fff;}.cls-4,.cls-5{stroke:#d6d6d6;}.cls-3{font-size:19.1264px;}.cls-5{fill:none;filter:url(#drop-shadow-1);}</style><filter id="drop-shadow-1" filterUnits="userSpaceOnUse"><feOffset dx="0" dy="0"/><feGaussianBlur result="blur" stdDeviation="10"/><feFlood flood-color="#000" flood-opacity="1"/><feComposite in2="blur" operator="in"/><feComposite in="SourceGraphic"/></filter></defs><g id="Bottom"><circle class="cls-5" cx="171.0415" cy="191.4947" r="113.3177"/><circle class="cls-4" cx="171.0415" cy="191.4947" r="113.3177"/></g><text class="cls-2" transform="translate(122.1495 284.7663) rotate(-62.3065)"><tspan x="0" y="0">L</tspan></text><text class="cls-2" transform="translate(124.8575 279.6071) rotate(-62.307)"><tspan x="0" y="0">a</tspan></text><text class="cls-2" transform="translate(127.878 273.8532) rotate(-62.3083)"><tspan x="0" y="0">c</tspan></text><text class="cls-2" transform="translate(130.9532 267.9938) rotate(-62.3069)"><tspan x="0" y="0">k</tspan></text><text class="cls-2" transform="translate(134.0226 262.1452) rotate(-62.3081)"><tspan x="0" y="0"> </tspan></text><text class="cls-2" transform="translate(136.0636 258.2575) rotate(-62.3075)"><tspan x="0" y="0">O</tspan></text><text class="cls-2" transform="translate(139.6212 251.4782) rotate(-62.3074)"><tspan x="0" y="0">f</tspan></text><text class="cls-2" transform="translate(142.2296 246.5084) rotate(-62.3074)"><tspan x="0" y="0"> </tspan></text><text class="cls-2" transform="translate(144.2706 242.6188) rotate(-62.3074)"><tspan x="0" y="0">T</tspan></text><text class="cls-2" transform="translate(147.422 236.6139) rotate(-62.3077)"><tspan x="0" y="0">i</tspan></text><text class="cls-2" transform="translate(149.1105 233.3991) rotate(-62.3076)"><tspan x="0" y="0">m</tspan></text><text class="cls-2" transform="translate(152.3068 227.3092) rotate(-62.3072)"><tspan x="0" y="0">e</tspan></text><text class="cls-2" transform="translate(84.3937 251.3932) rotate(-34.6145)"><tspan x="0" y="0">L</tspan></text><text class="cls-2" transform="translate(87.7648 249.067) rotate(-34.6144)"><tspan x="0" y="0">a</tspan></text><text class="cls-2" transform="translate(91.6642 246.3756) rotate(-34.6149)"><tspan x="0" y="0">c</tspan></text><text class="cls-2" transform="translate(95.6456 243.6276) rotate(-34.615)"><tspan x="0" y="0">k</tspan></text><text class="cls-2" transform="translate(99.6388 240.8707) rotate(-34.6148)"><tspan x="0" y="0"> </tspan></text><text class="cls-2" transform="translate(101.837 239.3541) rotate(-34.6154)"><tspan x="0" y="0">D</tspan></text><text class="cls-2" transform="translate(106.0363 236.4547) rotate(-34.6156)"><tspan x="0" y="0">e</tspan></text><text class="cls-2" transform="translate(109.4513 234.0983) rotate(-34.6156)"><tspan x="0" y="0">s</tspan></text><text class="cls-2" transform="translate(113.0382 231.6227) rotate(-34.6151)"><tspan x="0" y="0">i</tspan></text><text class="cls-2" transform="translate(114.5626 230.5709) rotate(-34.6158)"><tspan x="0" y="0">g</tspan></text><text class="cls-2" transform="translate(118.295 227.9938) rotate(-34.6159)"><tspan x="0" y="0">n</tspan></text><text class="cls-2" transform="translate(122.2062 225.2946) rotate(-34.615)"><tspan x="0" y="0"> </tspan></text><text class="cls-2" transform="translate(124.3927 223.7848) rotate(-34.6158)"><tspan x="0" y="0">S</tspan></text><text class="cls-2" transform="translate(128.4601 220.9772) rotate(-34.6157)"><tspan x="0" y="0">k</tspan></text><text class="cls-2" transform="translate(132.4611 218.2155) rotate(-34.6143)"><tspan x="0" y="0">i</tspan></text><text class="cls-2" transform="translate(133.9718 217.1725) rotate(-34.6158)"><tspan x="0" y="0">ll</tspan></text><text class="cls-2" transform="translate(137.8087 214.5231) rotate(-34.6148)"><tspan x="0" y="0">s</tspan></text><text class="cls-2" transform="translate(67.1808 204.1832) rotate(-6.9225)"><tspan x="0" y="0">L</tspan></text><text class="cls-2" transform="translate(71.6769 203.6373) rotate(-6.9229)"><tspan x="0" y="0">a</tspan></text><text class="cls-2" transform="translate(76.8302 203.0114) rotate(-6.922)"><tspan x="0" y="0">c</tspan></text><text class="cls-2" transform="translate(82.1056 202.3707) rotate(-6.9234)"><tspan x="0" y="0">k</tspan></text><text class="cls-2" transform="translate(87.3536 201.734) rotate(-6.923)"><tspan x="0" y="0"> </tspan></text><text class="cls-2" transform="translate(90.4474 201.358) rotate(-6.9229)"><tspan x="0" y="0">T</tspan></text><text class="cls-2" transform="translate(95.8654 200.6998) rotate(-6.9238)"><tspan x="0" y="0">e</tspan></text><text class="cls-2" transform="translate(100.4376 200.1452) rotate(-6.9238)"><tspan x="0" y="0">c</tspan></text><text class="cls-2" transform="translate(105.7228 199.5036) rotate(-6.9225)"><tspan x="0" y="0">h</tspan></text><text class="cls-2" transform="translate(110.2794 198.9508) rotate(-6.9229)"><tspan x="0" y="0"> </tspan></text><text class="cls-2" transform="translate(113.3517 198.5768) rotate(-6.9231)"><tspan x="0" y="0">S</tspan></text><text class="cls-2" transform="translate(118.7052 197.9264) rotate(-6.9228)"><tspan x="0" y="0">k</tspan></text><text class="cls-2" transform="translate(123.9611 197.2887) rotate(-6.9229)"><tspan x="0" y="0">i</tspan></text><text class="cls-2" transform="translate(126.2452 197.0123) rotate(-6.9226)"><tspan x="0" y="0">ll</tspan></text><text class="cls-2" transform="translate(131.3439 196.3932) rotate(-6.923)"><tspan x="0" y="0">s</tspan></text><text class="cls-2" transform="translate(72.6759 154.2575) rotate(20.7691)"><tspan x="0" y="0">L</tspan></text><text class="cls-2" transform="translate(76.1544 155.5758) rotate(20.7698)"><tspan x="0" y="0">e</tspan></text><text class="cls-2" transform="translate(79.7277 156.9313) rotate(20.7685)"><tspan x="0" y="0">a</tspan></text><text class="cls-2" transform="translate(83.8458 158.4928) rotate(20.7694)"><tspan x="0" y="0">r</tspan></text><text class="cls-2" transform="translate(87.5812 159.9088) rotate(20.7693)"><tspan x="0" y="0">n</tspan></text><text class="cls-2" transform="translate(91.7042 161.4733) rotate(20.7702)"><tspan x="0" y="0">i</tspan></text><text class="cls-2" transform="translate(93.0968 162.0016) rotate(20.7699)"><tspan x="0" y="0">n</tspan></text><text class="cls-2" transform="translate(97.2277 163.568) rotate(20.7693)"><tspan x="0" y="0">g</tspan></text><text class="cls-2" transform="translate(101.1417 165.0514) rotate(20.7685)"><tspan x="0" y="0"> </tspan></text><text class="cls-2" transform="translate(103.2823 165.8639) rotate(20.7685)"><tspan x="0" y="0">N</tspan></text><text class="cls-2" transform="translate(108.2677 167.7545) rotate(20.769)"><tspan x="0" y="0">e</tspan></text><text class="cls-2" transform="translate(111.8243 169.1032) rotate(20.7689)"><tspan x="0" y="0">w</tspan></text><text class="cls-2" transform="translate(116.5011 170.8766) rotate(20.7689)"><tspan x="0" y="0"> </tspan></text><text class="cls-2" transform="translate(118.6525 171.693) rotate(20.7698)"><tspan x="0" y="0">T</tspan></text><text class="cls-2" transform="translate(123.0431 173.358) rotate(20.7689)"><tspan x="0" y="0">o</tspan></text><text class="cls-2" transform="translate(127.2501 174.9538) rotate(20.7687)"><tspan x="0" y="0">o</tspan></text><text class="cls-2" transform="translate(131.465 176.5524) rotate(20.7696)"><tspan x="0" y="0">l</tspan></text><text class="cls-2" transform="translate(134.2482 177.608) rotate(20.7681)"><tspan x="0" y="0">s</tspan></text><text class="cls-2" transform="translate(100.6017 112.0348) rotate(48.4636)"><tspan x="0" y="0">A</tspan></text><text class="cls-2" transform="translate(104.6407 116.5934) rotate(48.4617)"><tspan x="0" y="0">c</tspan></text><text class="cls-2" transform="translate(108.4093 120.8473) rotate(48.4616)"><tspan x="0" y="0">c</tspan></text><text class="cls-2" transform="translate(112.2003 125.1266) rotate(48.4612)"><tspan x="0" y="0">e</tspan></text><text class="cls-2" transform="translate(115.5099 128.8639) rotate(48.462)"><tspan x="0" y="0">s</tspan></text><text class="cls-2" transform="translate(118.9659 132.7633) rotate(48.4616)"><tspan x="0" y="0">s</tspan></text><text class="cls-2" transform="translate(122.4181 136.6608) rotate(48.4616)"><tspan x="0" y="0">i</tspan></text><text class="cls-2" transform="translate(124.2052 138.6774) rotate(48.4615)"><tspan x="0" y="0">n</tspan></text><text class="cls-2" transform="translate(127.921 142.8717) rotate(48.4616)"><tspan x="0" y="0">g</tspan></text><text class="cls-2" transform="translate(131.5021 146.9157) rotate(48.4626)"><tspan x="0" y="0"> </tspan></text><text class="cls-2" transform="translate(133.8185 149.5299) rotate(48.4622)"><tspan x="0" y="0">D</tspan></text><text class="cls-2" transform="translate(137.7755 153.9948) rotate(48.4619)"><tspan x="0" y="0">a</tspan></text><text class="cls-2" transform="translate(141.4855 158.1842) rotate(48.4622)"><tspan x="0" y="0">t</tspan></text><text class="cls-2" transform="translate(145.1446 162.3112) rotate(48.4618)"><tspan x="0" y="0">a</tspan></text><text class="cls-2" transform="translate(146.3087 91.1354) rotate(76.1526)"><tspan x="0" y="0">I</tspan></text><text class="cls-2" transform="translate(147.2247 94.8512) rotate(76.1542)"><tspan x="0" y="0">n</tspan></text><text class="cls-2" transform="translate(148.6388 100.5866) rotate(76.1545)"><tspan x="0" y="0">f</tspan></text><text class="cls-2" transform="translate(149.838 105.4528) rotate(76.1531)"><tspan x="0" y="0">o</tspan></text><text class="cls-2" transform="translate(151.2745 111.2829) rotate(76.1536)"><tspan x="0" y="0"> </tspan></text><text class="cls-2" transform="translate(152.1866 114.9801) rotate(76.1537)"><tspan x="0" y="0">O</tspan></text><text class="cls-2" transform="translate(153.8732 121.8248) rotate(76.1548)"><tspan x="0" y="0">v</tspan></text><text class="cls-2" transform="translate(155.3351 127.7545) rotate(76.1539)"><tspan x="0" y="0">e</tspan></text><text class="cls-2" transform="translate(156.6017 132.8942) rotate(76.1534)"><tspan x="0" y="0">r</tspan></text><text class="cls-2" transform="translate(157.921 138.2467) rotate(76.1541)"><tspan x="0" y="0">l</tspan></text><text class="cls-2" transform="translate(158.9962 142.611) rotate(76.1547)"><tspan x="0" y="0">o</tspan></text><text class="cls-2" transform="translate(160.4327 148.4362) rotate(76.1543)"><tspan x="0" y="0">a</tspan></text><text class="cls-2" transform="translate(161.8478 154.1793) rotate(76.1538)"><tspan x="0" y="0">d</tspan></text><text class="cls-2" transform="translate(179.17 158.6813) rotate(-76.1534)"><tspan x="0" y="0">L</tspan></text><text class="cls-2" transform="translate(180.0636 155.0573) rotate(-76.1535)"><tspan x="0" y="0">a</tspan></text><text class="cls-2" transform="translate(181.1183 150.7789) rotate(-76.154)"><tspan x="0" y="0">c</tspan></text><text class="cls-2" transform="translate(182.1944 146.4127) rotate(-76.1542)"><tspan x="0" y="0">k</tspan></text><text class="cls-2" transform="translate(183.2687 142.0504) rotate(-76.1542)"><tspan x="0" y="0"> </tspan></text><text class="cls-2" transform="translate(183.8233 139.8034) rotate(-76.1538)"><tspan x="0" y="0">C</tspan></text><text class="cls-2" transform="translate(185.1358 134.4782) rotate(-76.1544)"><tspan x="0" y="0">o</tspan></text><text class="cls-2" transform="translate(186.212 130.1129) rotate(-76.154)"><tspan x="0" y="0">ll</tspan></text><text class="cls-2" transform="translate(187.2452 125.9215) rotate(-76.1538)"><tspan x="0" y="0">a</tspan></text><text class="cls-2" transform="translate(188.298 121.6491) rotate(-76.1543)"><tspan x="0" y="0">b</tspan></text><text class="cls-2" transform="translate(189.2579 117.7536) rotate(-76.1536)"><tspan x="0" y="0">o</tspan></text><text class="cls-2" transform="translate(190.3321 113.3981) rotate(-76.1545)"><tspan x="0" y="0">r</tspan></text><text class="cls-2" transform="translate(191.2892 109.5143) rotate(-76.1527)"><tspan x="0" y="0">a</tspan></text><text class="cls-2" transform="translate(192.3468 105.2233) rotate(-76.1531)"><tspan x="0" y="0">t</tspan></text><text class="cls-2" transform="translate(193.3722 101.0631) rotate(-76.1545)"><tspan x="0" y="0">i</tspan></text><text class="cls-2" transform="translate(193.7374 99.5797) rotate(-76.1536)"><tspan x="0" y="0">o</tspan></text><text class="cls-2" transform="translate(194.8116 95.2243) rotate(-76.1526)"><tspan x="0" y="0">n</tspan></text><text class="cls-2" transform="translate(193.5753 166.1588) rotate(-48.4614)"><tspan x="0" y="0">L</tspan></text><text class="cls-2" transform="translate(196.0519 163.3659) rotate(-48.4614)"><tspan x="0" y="0">a</tspan></text><text class="cls-2" transform="translate(198.9747 160.0661) rotate(-48.4607)"><tspan x="0" y="0">c</tspan></text><text class="cls-2" transform="translate(201.9571 156.6998) rotate(-48.4618)"><tspan x="0" y="0">k</tspan></text><text class="cls-2" transform="translate(204.9356 153.3366) rotate(-48.4604)"><tspan x="0" y="0"> </tspan></text><text class="cls-2" transform="translate(206.4698 151.6051) rotate(-48.4612)"><tspan x="0" y="0">O</tspan></text><text class="cls-2" transform="translate(210.169 147.4293) rotate(-48.4614)"><tspan x="0" y="0">f</tspan></text><text class="cls-2" transform="translate(212.4845 144.8151) rotate(-48.4613)"><tspan x="0" y="0"> </tspan></text><text class="cls-2" transform="translate(214.003 143.1012) rotate(-48.461)"><tspan x="0" y="0">M</tspan></text><text class="cls-2" transform="translate(217.9522 138.6442) rotate(-48.4608)"><tspan x="0" y="0">e</tspan></text><text class="cls-2" transform="translate(220.4718 135.8004) rotate(-48.4612)"><tspan x="0" y="0">n</tspan></text><text class="cls-2" transform="translate(223.3956 132.4996) rotate(-48.4618)"><tspan x="0" y="0">t</tspan></text><text class="cls-2" transform="translate(226.256 129.2721) rotate(-48.4621)"><tspan x="0" y="0">o</tspan></text><text class="cls-2" transform="translate(229.2306 125.9137) rotate(-48.4623)"><tspan x="0" y="0">r</tspan></text><text class="cls-2" transform="translate(231.8907 122.9098) rotate(-48.4618)"><tspan x="0" y="0">s</tspan></text><text class="cls-2" transform="translate(234.5392 119.9215) rotate(-48.4614)"><tspan x="0" y="0">h</tspan></text><text class="cls-2" transform="translate(237.0597 117.0758) rotate(-48.4608)"><tspan x="0" y="0">i</tspan></text><text class="cls-2" transform="translate(238.0597 115.9479) rotate(-48.4609)"><tspan x="0" y="0">p</tspan></text><text class="cls-2" transform="translate(203.2218 179.3737) rotate(-20.7692)"><tspan x="0" y="0">L</tspan></text><text class="cls-2" transform="translate(206.9776 177.9489) rotate(-20.7688)"><tspan x="0" y="0">o</tspan></text><text class="cls-2" transform="translate(211.4845 176.2409) rotate(-20.7686)"><tspan x="0" y="0">w</tspan></text><text class="cls-2" transform="translate(216.4513 174.3561) rotate(-20.7692)"><tspan x="0" y="0"> </tspan></text><text class="cls-2" transform="translate(218.8819 173.4342) rotate(-20.769)"><tspan x="0" y="0">D</tspan></text><text class="cls-2" transform="translate(223.6046 171.6442) rotate(-20.7691)"><tspan x="0" y="0">a</tspan></text><text class="cls-2" transform="translate(227.9942 169.9791) rotate(-20.7686)"><tspan x="0" y="0">t</tspan></text><text class="cls-2" transform="translate(232.2979 168.3463) rotate(-20.7701)"><tspan x="0" y="0">a</tspan></text><text class="cls-2" transform="translate(236.6886 166.6813) rotate(-20.7689)"><tspan x="0" y="0"> </tspan></text><text class="cls-2" transform="translate(239.1202 165.7594) rotate(-20.769)"><tspan x="0" y="0">L</tspan></text><text class="cls-2" transform="translate(242.8956 164.3278) rotate(-20.7691)"><tspan x="0" y="0">i</tspan></text><text class="cls-2" transform="translate(244.5665 163.695) rotate(-20.7691)"><tspan x="0" y="0">t</tspan></text><text class="cls-2" transform="translate(248.8829 162.0573) rotate(-20.7692)"><tspan x="0" y="0">e</tspan></text><text class="cls-2" transform="translate(252.7198 160.6012) rotate(-20.7705)"><tspan x="0" y="0">r</tspan></text><text class="cls-2" transform="translate(256.7423 159.0768) rotate(-20.7694)"><tspan x="0" y="0">a</tspan></text><text class="cls-2" transform="translate(261.1378 157.4088) rotate(-20.7678)"><tspan x="0" y="0">c</tspan></text><text class="cls-2" transform="translate(265.627 155.7077) rotate(-20.7678)"><tspan x="0" y="0">y</tspan></text><text class="cls-2" transform="translate(206.2325 195.8395) rotate(6.9222)"><tspan x="0" y="0">N</tspan></text><text class="cls-2" transform="translate(212.922 196.652) rotate(6.9228)"><tspan x="0" y="0">o</tspan></text><text class="cls-2" transform="translate(218.7628 197.361) rotate(6.9236)"><tspan x="0" y="0">t</tspan></text><text class="cls-2" transform="translate(224.4444 198.0514) rotate(6.9232)"><tspan x="0" y="0"> </tspan></text><text class="cls-2" transform="translate(228.1085 198.4957) rotate(6.923)"><tspan x="0" y="0">R</tspan></text><text class="cls-2" transform="translate(234.0001 199.2116) rotate(6.9234)"><tspan x="0" y="0">e</tspan></text><text class="cls-2" transform="translate(239.1778 199.8405) rotate(6.9232)"><tspan x="0" y="0">s</tspan></text><text class="cls-2" transform="translate(244.544 200.4909) rotate(6.9232)"><tspan x="0" y="0">p</tspan></text><text class="cls-2" transform="translate(249.586 201.1041) rotate(6.9231)"><tspan x="0" y="0">e</tspan></text><text class="cls-2" transform="translate(254.754 201.7311) rotate(6.924)"><tspan x="0" y="0">c</tspan></text><text class="cls-2" transform="translate(260.629 202.444) rotate(6.9244)"><tspan x="0" y="0">t</tspan></text><text class="cls-2" transform="translate(266.2911 203.1325) rotate(6.9233)"><tspan x="0" y="0">e</tspan></text><text class="cls-2" transform="translate(271.463 203.7604) rotate(6.9236)"><tspan x="0" y="0">d</tspan></text><text class="cls-2" transform="translate(187.9649 223.7731) rotate(62.307)"><tspan x="0" y="0">N</tspan></text><text class="cls-2" transform="translate(190.6778 228.9401) rotate(62.3078)"><tspan x="0" y="0">o</tspan></text><text class="cls-2" transform="translate(192.9991 233.3629) rotate(62.3073)"><tspan x="0" y="0">n</tspan></text><text class="cls-2" transform="translate(195.2774 237.7038) rotate(62.3075)"><tspan x="0" y="0">-</tspan></text><text class="cls-2" transform="translate(197.3907 241.7321) rotate(62.3071)"><tspan x="0" y="0">V</tspan></text><text class="cls-2" transform="translate(200.2423 247.1647) rotate(62.3079)"><tspan x="0" y="0">i</tspan></text><text class="cls-2" transform="translate(201.1593 248.9118) rotate(62.3078)"><tspan x="0" y="0">z</tspan></text><text class="cls-2" transform="translate(203.4835 253.3395) rotate(62.3076)"><tspan x="0" y="0"> </tspan></text><text class="cls-2" transform="translate(204.7882 255.8258) rotate(62.3066)"><tspan x="0" y="0">A</tspan></text><text class="cls-2" transform="translate(207.296 260.6032) rotate(62.307)"><tspan x="0" y="0">c</tspan></text><text class="cls-2" transform="translate(209.6261 265.0426) rotate(62.3068)"><tspan x="0" y="0">t</tspan></text><text class="cls-2" transform="translate(211.8536 269.2877) rotate(62.3068)"><tspan x="0" y="0">i</tspan></text><text class="cls-2" transform="translate(212.7814 271.0543) rotate(62.3082)"><tspan x="0" y="0">v</tspan></text><text class="cls-2" transform="translate(215.1466 275.5621) rotate(62.3063)"><tspan x="0" y="0">i</tspan></text><text class="cls-2" transform="translate(216.0802 277.3414) rotate(62.3073)"><tspan x="0" y="0">t</tspan></text><text class="cls-2" transform="translate(218.3116 281.5914) rotate(62.306)"><tspan x="0" y="0">y</tspan></text><text class="cls-2" transform="translate(171.0636 228.0348) rotate(90)"><tspan x="0" y="0">D</tspan><tspan x="7.0645" y="0">a</tspan><tspan x="13.7695" y="0">t</tspan><tspan x="20.3877" y="0">a</tspan><tspan x="27.0713" y="0"> </tspan><tspan x="31.6729" y="0">V</tspan><tspan x="39.5947" y="0">o</tspan><tspan x="46.4209" y="0">l</tspan><tspan x="51.7021" y="0">u</tspan><tspan x="58.501" y="0">m</tspan><tspan x="65.6152" y="0">e</tspan></text><text class="cls-1" transform="translate(148.3462 188.0729)"><tspan x="0" y="0">Chal-</tspan><tspan x="-2.7617" y="14.7793">lenges</tspan></text><text class="cls-2" transform="translate(200.6378 211.983) rotate(34.6148)"><tspan x="0" y="0">T</tspan></text><text class="cls-2" transform="translate(204.7198 214.8004) rotate(34.6156)"><tspan x="0" y="0">o</tspan></text><text class="cls-2" transform="translate(208.6827 217.5368) rotate(34.6148)"><tspan x="0" y="0">o</tspan></text><text class="cls-2" transform="translate(212.6358 220.2653) rotate(34.6156)"><tspan x="0" y="0">l</tspan></text><text class="cls-2" transform="translate(215.3575 222.1442) rotate(34.6156)"><tspan x="0" y="0">s</tspan></text><text class="cls-2" transform="translate(218.8868 224.5788) rotate(34.6148)"><tspan x="0" y="0">’</tspan></text><text class="cls-2" transform="translate(220.9493 226.0026) rotate(34.6152)"><tspan x="0" y="0"> </tspan></text><text class="cls-2" transform="translate(223.0968 227.486) rotate(34.6149)"><tspan x="0" y="0">T</tspan></text><text class="cls-2" transform="translate(227.1856 230.3073) rotate(34.6156)"><tspan x="0" y="0">e</tspan></text><text class="cls-2" transform="translate(230.5567 232.6354) rotate(34.6147)"><tspan x="0" y="0">c</tspan></text><text class="cls-2" transform="translate(234.5226 235.3717) rotate(34.6162)"><tspan x="0" y="0">h</tspan></text><text class="cls-2" transform="translate(237.8858 237.693) rotate(34.6144)"><tspan x="0" y="0"> </tspan></text><text class="cls-2" transform="translate(240.0392 239.1793) rotate(34.6153)"><tspan x="0" y="0">L</tspan></text><text class="cls-2" transform="translate(243.3487 241.4655) rotate(34.6147)"><tspan x="0" y="0">i</tspan></text><text class="cls-2" transform="translate(244.836 242.4909) rotate(34.6151)"><tspan x="0" y="0">m</tspan></text><text class="cls-2" transform="translate(249.0274 245.3844) rotate(34.6154)"><tspan x="0" y="0">i</tspan></text><text class="cls-2" transform="translate(250.5001 246.401) rotate(34.6153)"><tspan x="0" y="0">t</tspan></text><text class="cls-2" transform="translate(254.2892 249.0153) rotate(34.6155)"><tspan x="0" y="0">s</tspan></text><text class="cls-3" transform="translate(51.5063 173.3613) rotate(-78.6845)"><tspan x="0" y="0">P</tspan></text><text class="cls-3" transform="translate(53.2906 164.5418) rotate(-74.811)"><tspan x="0" y="0">r</tspan></text><text class="cls-3" transform="translate(55.3063 157.2984) rotate(-72.3886)"><tspan x="0" y="0">i</tspan></text><text class="cls-3" transform="translate(56.0665 154.6718) rotate(-69.7386)"><tspan x="0" y="0">o</tspan></text><text class="cls-3" transform="translate(58.9866 146.7905) rotate(-65.9789)"><tspan x="0" y="0">r</tspan></text><text class="cls-3" transform="translate(62.0749 139.9764) rotate(-63.5586)"><tspan x="0" y="0">i</tspan></text><text class="cls-3" transform="translate(63.2486 137.4753) rotate(-60.9729)"><tspan x="0" y="0">t</tspan></text><text class="cls-3" transform="translate(67.141 130.4765) rotate(-57.3909)"><tspan x="0" y="0">y</tspan></text><text class="cls-3" transform="translate(71.0109 124.4851) rotate(-54.6842)"><tspan x="0" y="0"> </tspan></text><text class="cls-3" transform="translate(73.4288 121.0088) rotate(-52.0221)"><tspan x="0" y="0">F</tspan></text><text class="cls-3" transform="translate(77.6939 115.4994) rotate(-48.398)"><tspan x="0" y="0">o</tspan></text><text class="cls-3" transform="translate(83.2959 109.2048) rotate(-44.6846)"><tspan x="0" y="0">r</tspan></text><text class="cls-3" transform="translate(88.6359 103.9715) rotate(-41.9749)"><tspan x="0" y="0"> </tspan></text><text class="cls-3" transform="translate(91.8212 101.1026) rotate(-39.9581)"><tspan x="0" y="0">I</tspan></text><text class="cls-3" transform="translate(95.1063 98.2609) rotate(-36.8238)"><tspan x="0" y="0">m</tspan></text><text class="cls-3" transform="translate(102.3073 92.9033) rotate(-33.082)"><tspan x="0" y="0">p</tspan></text><text class="cls-3" transform="translate(108.058 89.1387) rotate(-29.6842)"><tspan x="0" y="0">r</tspan></text><text class="cls-3" transform="translate(114.5121 85.4332) rotate(-25.9181)"><tspan x="0" y="0">o</tspan></text><text class="cls-3" transform="translate(122.0546 81.7559) rotate(-21.8841)"><tspan x="0" y="0">v</tspan></text><text class="cls-3" transform="translate(130.1057 78.5939) rotate(-19.1827)"><tspan x="0" y="0">i</tspan></text><text class="cls-3" transform="translate(132.643 77.6413) rotate(-16.5842)"><tspan x="0" y="0">n</tspan></text><text class="cls-3" transform="translate(140.5241 75.2942) rotate(-12.7849)"><tspan x="0" y="0">g</tspan></text><text class="cls-3" transform="translate(148.1932 73.5956) rotate(-9.9355)"><tspan x="0" y="0"> </tspan></text><text class="cls-3" transform="translate(152.3512 72.7983) rotate(-6.8394)"><tspan x="0" y="0">D</tspan></text><text class="cls-3" transform="translate(161.1476 71.7477) rotate(-2.8359)"><tspan x="0" y="0">a</tspan></text><text class="cls-3" transform="translate(169.3597 71.3366) rotate(.9768)"><tspan x="0" y="0">t</tspan></text><text class="cls-3" transform="translate(177.3897 71.4644) rotate(4.7876)"><tspan x="0" y="0">a</tspan></text><text class="cls-3" transform="translate(185.6025 72.1992) rotate(7.7153)"><tspan x="0" y="0"> </tspan></text><text class="cls-3" transform="translate(189.7923 72.6644) rotate(11.1864)"><tspan x="0" y="0">V</tspan></text><text class="cls-3" transform="translate(200.1312 74.8129) rotate(14.3049)"><tspan x="0" y="0">i</tspan></text><text class="cls-3" transform="translate(202.7797 75.4164) rotate(16.94)"><tspan x="0" y="0">z</tspan></text><text class="cls-3" transform="translate(210.8336 77.9222) rotate(19.9351)"><tspan x="0" y="0"> </tspan></text><text class="cls-3" transform="translate(214.8585 79.3165) rotate(22.9911)"><tspan x="0" y="0">S</tspan></text><text class="cls-3" transform="translate(222.7358 82.6528) rotate(27.0142)"><tspan x="0" y="0">k</tspan></text><text class="cls-3" transform="translate(230.2368 86.5477) rotate(29.6702)"><tspan x="0" y="0">i</tspan></text><text class="cls-3" transform="translate(232.6295 87.8378) rotate(32.24)"><tspan x="0" y="0">ll</tspan></text><text class="cls-3" transform="translate(239.4356 92.1347) rotate(35.9213)"><tspan x="0" y="0">s</tspan></text></svg>