<?xml version="1.0" encoding="utf-8"?>
<!-- Generator: Adobe Illustrator 28.3.0, SVG Export Plug-In . SVG Version: 6.00 Build 0)  -->
<svg version="1.1" id="Variable-3" xmlns="http://www.w3.org/2000/svg" xmlns:xlink="http://www.w3.org/1999/xlink" x="0px" y="0px"
	 viewBox="0 0 353.1 335.5" style="enable-background:new 0 0 353.1 335.5;" xml:space="preserve">
<style type="text/css">
	.st0{fill:none;stroke:#D6D6D6;stroke-miterlimit:10;}
	.st1{fill:#FFFFFF;stroke:#D6D6D6;stroke-miterlimit:10;}
	.st2{font-family:'PatrickHandSC-Regular';}
	.st3{font-size:16px;}
	.st4{fill:none;stroke:#D6D6D6;stroke-width:0.5;stroke-linecap:round;stroke-linejoin:round;}
	.st5{fill:none;stroke:#D6D6D6;stroke-width:0.5;stroke-linecap:round;stroke-linejoin:round;stroke-dasharray:0,0,4.0349,4.0349;}
	.st6{fill:#EC6143;}
	.st7{fill:#F4774F;}
	.st8{fill:#FA8B5C;}
	.st9{fill:#FCA16C;}
	.st10{fill:none;stroke:#000000;stroke-miterlimit:10;}
	.st11{fill:#FFFFFF;}
	.st12{fill:#FDB57E;}
	.st13{fill:#FDC58E;}
	.st14{fill:#FDD19E;}
	.st15{fill:#FDDCAF;}
	.st16{font-size:14.2541px;}
	.st17{font-size:23.3598px;}
	.st18{font-size:20.4913px;}
	.st19{font-size:14.1023px;}
	.st20{font-size:11.91px;}
	.st21{font-size:16.2432px;}
	.st22{fill:#C41810;}
	.st23{font-size:14px;}
</style>
<g id="Bottom">
	<circle class="st0" cx="171" cy="181.5" r="113.3"/>
	<circle class="st1" cx="171" cy="181.5" r="113.3"/>
</g>
<g id="_1_Group">
	<text transform="matrix(0.9405 -0.3397 0.3397 0.9405 127.381 69.5877)" class="st2 st3">1</text>
	<text transform="matrix(0.9526 -0.3043 0.3043 0.9526 132.7585 67.6669)" class="st2 st3">.</text>
	<text transform="matrix(0.9736 -0.2283 0.2283 0.9736 139.3249 65.6021)" class="st2 st3">C</text>
	<text transform="matrix(0.9855 -0.1696 0.1696 0.9855 147.7245 63.6699)" class="st2 st3">h</text>
	<text transform="matrix(0.9931 -0.1172 0.1172 0.9931 153.5924 62.6436)" class="st2 st3">a</text>
	<text transform="matrix(0.9981 -6.139521e-02 6.139521e-02 0.9981 160.4543 61.8327)" class="st2 st3">ll</text>
	<text transform="matrix(1 -9.595673e-03 9.595673e-03 1 167.179 61.4253)" class="st2 st3">e</text>
	<text transform="matrix(0.9991 4.292191e-02 -4.292191e-02 0.9991 173.1168 61.3521)" class="st2 st3">n</text>
	<text transform="matrix(0.9952 9.794940e-02 -9.794940e-02 0.9952 180.0069 61.648)" class="st2 st3">g</text>
	<text transform="matrix(0.9888 0.149 -0.149 0.9888 186.5809 62.3007)" class="st2 st3">e</text>
	<text transform="matrix(0.9801 0.1984 -0.1984 0.9801 192.4651 63.1798)" class="st2 st3">s</text>
	<g id="_1._Axes">
		<line class="st4" x1="170.7" y1="181.1" x2="170.2" y2="179.2"/>
		<line class="st5" x1="169.2" y1="175.3" x2="144.6" y2="75.4"/>
		<line class="st4" x1="144.1" y1="73.4" x2="143.6" y2="71.5"/>
		<line class="st4" x1="170.7" y1="181.1" x2="171.1" y2="179.2"/>
		<line class="st5" x1="172.1" y1="175.3" x2="196.7" y2="75.4"/>
		<line class="st4" x1="197.2" y1="73.4" x2="197.7" y2="71.5"/>
		<line class="st4" x1="170.7" y1="181.1" x2="172" y2="179.6"/>
		<line class="st5" x1="174.7" y1="176.6" x2="242.9" y2="99.6"/>
		<line class="st4" x1="244.2" y1="98.1" x2="245.6" y2="96.6"/>
		<line class="st4" x1="170.7" y1="181.1" x2="172.5" y2="180.4"/>
		<line class="st5" x1="176.3" y1="179" x2="272.5" y2="142.5"/>
		<line class="st4" x1="274.4" y1="141.8" x2="276.3" y2="141.1"/>
	</g>
	<g id="_1._Bars">
		<path class="st6" d="M130.6,95.6c11.1-5.1,23-8.1,35.2-8.7l4.6,94.3L130.6,95.6L130.6,95.6z"/>
		<path class="st7" d="M173.9,109.1c9.3,0.5,18.5,2.7,26.9,6.6l-30.4,65.5L173.9,109.1L173.9,109.1z"/>
		<path class="st8" d="M213.5,108c9.5,5.6,17.8,12.9,24.4,21.6l-67.5,51.6L213.5,108L213.5,108z"/>
		<path class="st9" d="M215.8,153.1c3.6,5.9,6.1,12.4,7.3,19.2l-52.6,9L215.8,153.1z"/>
	</g>
	<path id="_1_color" class="st8" d="M170.4,75.4c52.4,0,95.9,38.1,104.3,88l7.9-1.4C273.5,108.7,227,68.2,171,68.2
		c-17.2,0-33.4,3.8-48,10.7l2.9,6.3C139.4,78.9,154.5,75.4,170.4,75.4L170.4,75.4z"/>
</g>
<g id="_2_Group">
	<text transform="matrix(8.534916e-02 0.9964 -0.9964 8.534916e-02 292.0551 168.6136)" class="st2 st3">2</text>
	<text transform="matrix(4.119556e-02 0.9992 -0.9992 4.119556e-02 292.6418 175.9664)" class="st2 st3">.</text>
	<text transform="matrix(-3.759072e-02 0.9993 -0.9993 -3.759072e-02 292.8943 182.837)" class="st2 st3">C</text>
	<text transform="matrix(-9.728933e-02 0.9953 -0.9953 -9.728933e-02 292.5339 191.4434)" class="st2 st3">h</text>
	<text transform="matrix(-0.1497 0.9887 -0.9887 -0.1497 291.972 197.3709)" class="st2 st3">a</text>
	<text transform="matrix(-0.2048 0.9788 -0.9788 -0.2048 290.937 204.2012)" class="st2 st3">ll</text>
	<text transform="matrix(-0.2553 0.9669 -0.9669 -0.2553 289.5531 210.7931)" class="st2 st3">e</text>
	<text transform="matrix(-0.3059 0.9521 -0.9521 -0.3059 288.0462 216.5597)" class="st2 st3">n</text>
	<text transform="matrix(-0.3579 0.9338 -0.9338 -0.3579 285.9356 223.1273)" class="st2 st3">g</text>
	<text transform="matrix(-0.4054 0.9142 -0.9142 -0.4054 283.5742 229.2738)" class="st2 st3">e</text>
	<text transform="matrix(-0.4507 0.8927 -0.8927 -0.4507 281.1687 234.7184)" class="st2 st3">s</text>
	<text transform="matrix(-0.5126 0.8586 -0.8586 -0.5126 276.5506 243.4879)" class="st2 st3">I</text>
	<text transform="matrix(-0.5495 0.8355 -0.8355 -0.5495 274.7209 246.6262)" class="st2 st3">n</text>
	<text transform="matrix(-0.6217 0.7833 -0.7833 -0.6217 268.8379 255.3139)" class="st2 st3">D</text>
	<text transform="matrix(-0.6643 0.7475 -0.7475 -0.6643 264.1765 261.1577)" class="st2 st3">e</text>
	<text transform="matrix(-0.6999 0.7142 -0.7142 -0.6999 260.2291 265.602)" class="st2 st3">p</text>
	<text transform="matrix(-0.7361 0.6768 -0.6768 -0.7361 256.1868 269.7508)" class="st2 st3">t</text>
	<text transform="matrix(-0.7705 0.6374 -0.6374 -0.7705 251.2371 274.2929)" class="st2 st3">h</text>
	<g id="_2._Axes">
		<line class="st4" x1="170.7" y1="181.1" x2="172.7" y2="181.4"/>
		<line class="st5" x1="176.7" y1="181.8" x2="278.8" y2="194.2"/>
		<line class="st4" x1="280.8" y1="194.5" x2="282.8" y2="194.7"/>
		<line class="st4" x1="170.7" y1="181.1" x2="172.3" y2="182.3"/>
		<line class="st5" x1="175.6" y1="184.5" x2="260.3" y2="243"/>
		<line class="st4" x1="262" y1="244.1" x2="263.6" y2="245.3"/>
		<line class="st4" x1="170.7" y1="181.1" x2="171.6" y2="182.9"/>
		<line class="st5" x1="173.5" y1="186.5" x2="221.3" y2="277.6"/>
		<line class="st4" x1="222.2" y1="279.4" x2="223.2" y2="281.1"/>
		<line class="st4" x1="170.7" y1="181.1" x2="170.7" y2="183.1"/>
		<line class="st5" x1="170.7" y1="187.2" x2="170.7" y2="290"/>
		<line class="st4" x1="170.7" y1="292.1" x2="170.7" y2="294.1"/>
	</g>
	<g id="_2._Lines">
		<path class="st10" d="M263,191.5c-1.4,15.2-1.9,34.1-10.6,45c-8.6,10.8-27.7,13.1-41.2,20.2c-13.4,7-27.8,23.7-39.6,22.2"/>
		<path class="st10" d="M224.8,187.2c-2.4,8.8-0.7,20.3-5.7,26.7c-5,6.4-17.2,6.7-24.5,11.7c-8.9,6.1-17.1,23.6-23.2,23.4"/>
		<path class="st10" d="M196.1,184c-2.3,3.2-5,7.1-8.5,8.7c-2.9,1.3-7.5-0.3-10.2,1.2c-3.3,1.9-4.9,10.6-6.6,11"/>
	</g>
	<g id="_2._Circles">
		<circle class="st11" cx="196.1" cy="184.2" r="5.3"/>
		<circle class="st12" cx="196.1" cy="184.2" r="4.2"/>
		<circle class="st11" cx="187.6" cy="192.8" r="5.3"/>
		<circle class="st13" cx="187.6" cy="192.8" r="4.2"/>
		<circle class="st11" cx="177.4" cy="193.9" r="5.3"/>
		<circle class="st14" cx="177.4" cy="193.9" r="4.2"/>
		<circle class="st11" cx="170.7" cy="204.8" r="5.3"/>
		<circle class="st15" cx="170.7" cy="204.8" r="4.2"/>
		<circle class="st11" cx="224.7" cy="187.7" r="5.3"/>
		<circle class="st12" cx="224.7" cy="187.7" r="4.2"/>
		<circle class="st11" cx="218.8" cy="214.3" r="5.3"/>
		<circle class="st13" cx="218.8" cy="214.3" r="4.2"/>
		<circle class="st11" cx="194.1" cy="225.8" r="5.3"/>
		<circle class="st14" cx="194.1" cy="225.8" r="4.2"/>
		<circle class="st11" cx="170.7" cy="249" r="5.3"/>
		<circle class="st15" cx="170.7" cy="249" r="4.2"/>
		<circle class="st11" cx="262.9" cy="192.3" r="5.3"/>
		<circle class="st12" cx="262.9" cy="192.3" r="4.2"/>
		<circle class="st11" cx="251.9" cy="237.2" r="5.3"/>
		
			<ellipse transform="matrix(0.1602 -0.9871 0.9871 0.1602 -22.5757 447.8701)" class="st13" cx="251.9" cy="237.2" rx="4.2" ry="4.2"/>
		<circle class="st11" cx="210.5" cy="257" r="5.3"/>
		<circle class="st14" cx="210.5" cy="257" r="4.2"/>
		<circle class="st11" cx="170.7" cy="278.8" r="5.3"/>
		<circle class="st15" cx="170.7" cy="278.8" r="4.2"/>
	</g>
	<path id="_2_color" class="st13" d="M282.7,162l-7.9,1.4c1,5.8,1.5,11.7,1.5,17.8c0,58.5-47.4,105.8-105.8,105.8
		c-6.1,0-12.1-0.5-17.9-1.5l-1.3,7.6c6.4,1.1,13,1.7,19.8,1.7c62.6,0,113.3-50.7,113.3-113.3C284.4,174.9,283.8,168.4,282.7,162
		L282.7,162z"/>
</g>
<g id="_3_Group">
	<text transform="matrix(-1.553799e-02 -0.9999 0.9999 -1.553799e-02 50.0755 188.2532)" class="st2 st3">3</text>
	<text transform="matrix(2.728656e-02 -0.9996 0.9996 2.728656e-02 50.0049 181.2166)" class="st2 st3">.</text>
	<text transform="matrix(0.1002 -0.995 0.995 0.1002 50.2499 174.3137)" class="st2 st3">R</text>
	<text transform="matrix(0.1538 -0.9881 0.9881 0.1538 50.9775 167.2187)" class="st2 st3">e</text>
	<text transform="matrix(0.2066 -0.9784 0.9784 0.2066 51.8752 161.3256)" class="st2 st3">c</text>
	<text transform="matrix(0.2627 -0.9649 0.9649 0.2627 53.3229 154.4447)" class="st2 st3">o</text>
	<text transform="matrix(0.3199 -0.9474 0.9474 0.3199 55.1662 147.6348)" class="st2 st3">m</text>
	<text transform="matrix(0.3776 -0.926 0.926 0.3776 57.565 140.5147)" class="st2 st3">m</text>
	<text transform="matrix(0.428 -0.9038 0.9038 0.428 60.4278 133.5441)" class="st2 st3">e</text>
	<text transform="matrix(0.4749 -0.88 0.88 0.4749 62.9543 128.1695)" class="st2 st3">n</text>
	<text transform="matrix(0.5241 -0.8517 0.8517 0.5241 66.2402 122.0734)" class="st2 st3">d</text>
	<text transform="matrix(0.5714 -0.8207 0.8207 0.5714 69.8475 116.2029)" class="st2 st3">a</text>
	<text transform="matrix(0.6165 -0.7874 0.7874 0.6165 73.7841 110.5454)" class="st2 st3">t</text>
	<text transform="matrix(0.6455 -0.7638 0.7638 0.6455 77.9921 105.2359)" class="st2 st3">i</text>
	<text transform="matrix(0.6746 -0.7382 0.7382 0.6746 79.4307 103.4596)" class="st2 st3">o</text>
	<text transform="matrix(0.7162 -0.6979 0.6979 0.7162 84.2088 98.229)" class="st2 st3">n</text>
	<text transform="matrix(0.7532 -0.6578 0.6578 0.7532 89.1482 93.4219)" class="st2 st3">s</text>
	<g id="_3._Words">
		<text transform="matrix(1 0 0 1 77.0156 157.7223)" class="st2 st16">Inspirations</text>
		<text transform="matrix(1 0 0 1 97.8635 182.3891)" class="st2 st17">People</text>
		<text transform="matrix(1 0 0 1 101.8537 245.0103)" class="st2 st18">Books</text>
		<text transform="matrix(1 0 0 1 105.0011 137.5907)" class="st2 st19">Blogs</text>
		<text transform="matrix(1 0 0 1 112.05 225.5907)" class="st2 st20">Resources</text>
		<text transform="matrix(1 0 0 1 79.4929 206.1117)" class="st2 st21">Communities</text>
	</g>
	<path id="_3_color" class="st22" d="M64.6,181.2c0-42.5,25.1-79.2,61.3-96l-2.9-6.3c-38.6,18.1-65.3,57.2-65.3,102.7
		c0,55.8,40.4,102.2,93.5,111.6l1.3-7.6C102.6,277,64.6,233.6,64.6,181.2L64.6,181.2z"/>
</g>
<circle id="Outside_Stroke" class="st0" cx="171" cy="181.5" r="113.3"/>
<g id="_1">
	<circle class="st1" cx="124.4" cy="83" r="8.1"/>
	<text transform="matrix(1 0 0 1 120.5063 87.6383)" class="st8 st2 st23">1</text>
</g>
<g id="_2">
	<circle class="st1" cx="278.8" cy="163.4" r="8.1"/>
	<text transform="matrix(1 0 0 1 275.5131 168.1007)" class="st13 st2 st23">2</text>
</g>
<g id="_3">
	<circle id="_3-2" class="st1" cx="150.5" cy="289.2" r="8.1"/>
	<text transform="matrix(1 0 0 1 147.3989 293.9054)" class="st22 st2 st23">3</text>
</g>
</svg>
