<?xml version="1.0" encoding="UTF-8"?><svg id="Variable-3" xmlns="http://www.w3.org/2000/svg" xmlns:xlink="http://www.w3.org/1999/xlink" viewBox="0 0 353.0708 335.4946"><defs><style>.cls-1,.cls-2,.cls-3,.cls-4,.cls-5,.cls-6,.cls-7,.cls-8,.cls-9,.cls-10{stroke-width:0px;}.cls-1,.cls-11{fill:#fa8b5c;}.cls-12{font-size:11.91px;letter-spacing:.03em;}.cls-12,.cls-13,.cls-14,.cls-15,.cls-11,.cls-16,.cls-17,.cls-18,.cls-19,.cls-20{font-family:PatrickHandSC-Regular, 'Patrick Hand SC';}.cls-12,.cls-13,.cls-14,.cls-15,.cls-17,.cls-18,.cls-20{fill:#000;}.cls-21,.cls-22,.cls-23,.cls-24,.cls-25,.cls-26{stroke:#d6d6d6;}.cls-21,.cls-27,.cls-23,.cls-24,.cls-25,.cls-26{fill:none;}.cls-21,.cls-23,.cls-24{stroke-linecap:round;stroke-linejoin:round;stroke-width:.5px;}.cls-2{fill:#ec6143;}.cls-13{font-size:16.2432px;letter-spacing:.03em;}.cls-3{fill:#fddcaf;}.cls-14{font-size:16px;}.cls-4{fill:#fca16c;}.cls-5,.cls-16{fill:#c41810;}.cls-15{font-size:14.1023px;letter-spacing:.0301em;}.cls-6{fill:#fdb57e;}.cls-11,.cls-16,.cls-19{font-size:14px;letter-spacing:.03em;}.cls-7,.cls-19{fill:#fdc58e;}.cls-8{fill:#fdd19e;}.cls-22,.cls-27,.cls-25,.cls-26{stroke-miterlimit:10;}.cls-22,.cls-9{fill:#fff;}.cls-17{font-size:23.3598px;letter-spacing:.03em;}.cls-27{stroke:#000;}.cls-18{font-size:14.2541px;letter-spacing:.03em;}.cls-23{stroke-dasharray:0 0 4.0349 4.0349;}.cls-24{stroke-dasharray:0 0 4.0349 4.0349;}.cls-25{filter:url(#drop-shadow-1);}.cls-20{font-size:20.4913px;letter-spacing:.03em;}.cls-10{fill:#f4774f;}</style><filter id="drop-shadow-1" filterUnits="userSpaceOnUse"><feOffset dx="0" dy="0"/><feGaussianBlur result="blur" stdDeviation="10"/><feFlood flood-color="#000" flood-opacity="1"/><feComposite in2="blur" operator="in"/><feComposite in="SourceGraphic"/></filter></defs><g id="Bottom"><circle class="cls-25" cx="171.0415" cy="191.4946" r="113.3177"/><circle class="cls-22" cx="171.0415" cy="191.4946" r="113.3177"/></g><g id="_1_Group"><text class="cls-14" transform="translate(51.5927 173.2845) rotate(-79.9402)"><tspan x="0" y="0"> </tspan></text><text class="cls-14" transform="translate(52.2209 169.7361) rotate(-78.2452)"><tspan x="0" y="0"> </tspan></text><text class="cls-14" transform="translate(52.955 166.2051) rotate(-76.5464)"><tspan x="0" y="0"> </tspan></text><text class="cls-14" transform="translate(53.7884 162.7149) rotate(-74.8542)"><tspan x="0" y="0"> </tspan></text><text class="cls-14" transform="translate(54.7323 159.2244) rotate(-73.1471)"><tspan x="0" y="0"> </tspan></text><text class="cls-14" transform="translate(55.7743 155.78) rotate(-71.4453)"><tspan x="0" y="0"> </tspan></text><text class="cls-14" transform="translate(56.9201 152.3615) rotate(-69.7386)"><tspan x="0" y="0"> </tspan></text><text class="cls-14" transform="translate(58.1617 148.9938) rotate(-68.0376)"><tspan x="0" y="0"> </tspan></text><text class="cls-14" transform="translate(59.5146 145.6357) rotate(-66.3198)"><tspan x="0" y="0"> </tspan></text><text class="cls-14" transform="translate(60.9521 142.3536) rotate(-64.6164)"><tspan x="0" y="0"> </tspan></text><text class="cls-14" transform="translate(62.5011 139.0863) rotate(-62.8983)"><tspan x="0" y="0"> </tspan></text><text class="cls-14" transform="translate(64.1424 135.8785) rotate(-61.184)"><tspan x="0" y="0"> </tspan></text><text class="cls-14" transform="translate(65.8849 132.7111) rotate(-59.4641)"><tspan x="0" y="0"> </tspan></text><text class="cls-14" transform="translate(67.7147 129.6051) rotate(-57.7493)"><tspan x="0" y="0"> </tspan></text><text class="cls-14" transform="translate(69.633 126.5648) rotate(-56.0402)"><tspan x="0" y="0"> </tspan></text><text class="cls-14" transform="translate(71.6481 123.569) rotate(-54.3257)"><tspan x="0" y="0"> </tspan></text><text class="cls-14" transform="translate(73.7491 120.6426) rotate(-52.6179)"><tspan x="0" y="0"> </tspan></text><text class="cls-14" transform="translate(75.9159 117.8018) rotate(-50.9292)"><tspan x="0" y="0"> </tspan></text><text class="cls-14" transform="translate(78.193 114.9943) rotate(-49.2252)"><tspan x="0" y="0"> </tspan></text><text class="cls-14" transform="translate(80.5508 112.2597) rotate(-47.5285)"><tspan x="0" y="0"> </tspan></text><text class="cls-14" transform="translate(82.9862 109.5983) rotate(-45.8419)"><tspan x="0" y="0"> </tspan></text><text class="cls-14" transform="translate(85.4973 107.0105) rotate(-44.1648)"><tspan x="0" y="0"> </tspan></text><text class="cls-14" transform="translate(88.0552 104.5085) rotate(-42.123)"><tspan x="0" y="0"> </tspan></text><text class="cls-14" transform="translate(90.7263 102.0746) rotate(-40.8296)"><tspan x="0" y="0"> </tspan></text><text class="cls-14" transform="translate(93.4607 99.7099) rotate(-39.141)"><tspan x="0" y="0"> </tspan></text><text class="cls-14" transform="translate(96.2466 97.44) rotate(-37.4553)"><tspan x="0" y="0"> </tspan></text><text class="cls-14" transform="translate(99.1023 95.252) rotate(-35.7614)"><tspan x="0" y="0"> </tspan></text><text class="cls-14" transform="translate(102.0442 93.1317) rotate(-34.0481)"><tspan x="0" y="0"> </tspan></text><text class="cls-14" transform="translate(105.0339 91.1111) rotate(-32.3386)"><tspan x="0" y="0"> </tspan></text><text class="cls-14" transform="translate(108.0677 89.1884) rotate(-30.635)"><tspan x="0" y="0"> </tspan></text><text class="cls-14" transform="translate(111.1644 87.3525) rotate(-28.9241)"><tspan x="0" y="0"> </tspan></text><text class="cls-14" transform="translate(114.3024 85.617) rotate(-27.2187)"><tspan x="0" y="0"> </tspan></text><text class="cls-14" transform="translate(117.5211 83.9611) rotate(-25.4971)"><tspan x="0" y="0"> </tspan></text><text class="cls-14" transform="translate(120.7766 82.4072) rotate(-23.7801)"><tspan x="0" y="0"> </tspan></text><text class="cls-14" transform="translate(124.0669 80.9558) rotate(-22.0703)"><tspan x="0" y="0"> </tspan></text><text class="cls-14" transform="translate(127.3809 79.5877) rotate(-19.8615)"><tspan x="0" y="0">1</tspan></text><text class="cls-14" transform="translate(132.7587 77.6668) rotate(-17.7182)"><tspan x="0" y="0">.</tspan></text><text class="cls-14" transform="translate(135.9434 76.6455) rotate(-16.0712)"><tspan x="0" y="0"> </tspan></text><text class="cls-14" transform="translate(139.3249 75.602) rotate(-13.1956)"><tspan x="0" y="0">C</tspan></text><text class="cls-14" transform="translate(147.7245 73.6699) rotate(-9.7621)"><tspan x="0" y="0">h</tspan></text><text class="cls-14" transform="translate(153.5924 72.6436) rotate(-6.7323)"><tspan x="0" y="0">a</tspan></text><text class="cls-14" transform="translate(160.4543 71.8327) rotate(-3.5199)"><tspan x="0" y="0">ll</tspan></text><text class="cls-14" transform="translate(167.179 71.4253) rotate(-.5498)"><tspan x="0" y="0">e</tspan></text><text class="cls-14" transform="translate(173.1168 71.3521) rotate(2.46)"><tspan x="0" y="0">n</tspan></text><text class="cls-14" transform="translate(180.0069 71.648) rotate(5.6211)"><tspan x="0" y="0">g</tspan></text><text class="cls-14" transform="translate(186.5809 72.3008) rotate(8.5712)"><tspan x="0" y="0">e</tspan></text><text class="cls-14" transform="translate(192.4651 73.1797) rotate(11.4439)"><tspan x="0" y="0">s</tspan></text><text class="cls-14" transform="translate(198.6263 74.4533) rotate(13.7665)"><tspan x="0" y="0"> </tspan></text><g id="_1._Axes"><line class="cls-21" x1="170.6664" y1="191.1196" x2="170.1877" y2="189.1777"/><line class="cls-24" x1="169.2221" y1="185.26" x2="144.5989" y2="85.3597"/><line class="cls-21" x1="144.1161" y1="83.4009" x2="143.6374" y2="81.459"/><line class="cls-21" x1="170.6664" y1="191.1196" x2="171.145" y2="189.1777"/><line class="cls-24" x1="172.1106" y1="185.26" x2="196.7338" y2="85.3597"/><line class="cls-21" x1="197.2166" y1="83.4009" x2="197.6953" y2="81.459"/><line class="cls-21" x1="170.6664" y1="191.1196" x2="171.9926" y2="189.6225"/><line class="cls-23" x1="174.6682" y1="186.6024" x2="242.897" y2="109.5881"/><line class="cls-21" x1="244.2348" y1="108.078" x2="245.561" y2="106.5809"/><line class="cls-21" x1="170.6664" y1="191.1196" x2="172.5364" y2="190.4104"/><line class="cls-23" x1="176.3091" y1="188.9796" x2="272.513" y2="152.4942"/><line class="cls-21" x1="274.3993" y1="151.7788" x2="276.2693" y2="151.0696"/></g><g id="_1._Bars"><path class="cls-2" d="M130.6341,105.5587c11.0741-5.1458,23.041-8.0952,35.238-8.685l4.563,94.338-39.801-85.653Z"/><path class="cls-10" d="M173.9231,119.0926c9.3241.4511,18.4723,2.7061,26.938,6.64l-30.426,65.479,3.488-72.119Z"/><path class="cls-1" d="M213.4901,118.0057c9.4648,5.5667,17.7602,12.9161,24.427,21.641l-67.482,51.565,43.055-73.206Z"/><path class="cls-4" d="M215.7551,163.0617c3.6397,5.8593,6.1086,12.3688,7.27,19.168l-52.59,8.982,45.32-28.15Z"/></g><path id="_1_color" class="cls-1" d="M170.4351,85.3774c52.3769,0,95.8601,38.0503,104.3327,88.0148l7.9214-1.353c-9.2256-53.3126-55.6986-93.8622-111.6477-93.8622-17.1716,0-33.447,3.8267-48.0312,10.6623l2.8926,6.3435c13.5372-6.2884,28.6228-9.8054,44.5322-9.8054Z"/></g><g id="_2_Group"><text class="cls-14" transform="translate(220.4177 81.7011) rotate(24.6316)"><tspan x="0" y="0"> </tspan></text><text class="cls-14" transform="translate(223.6938 83.2017) rotate(26.3266)"><tspan x="0" y="0"> </tspan></text><text class="cls-14" transform="translate(226.9266 84.8006) rotate(28.0254)"><tspan x="0" y="0"> </tspan></text><text class="cls-14" transform="translate(230.0949 86.4852) rotate(29.7176)"><tspan x="0" y="0"> </tspan></text><text class="cls-14" transform="translate(233.2356 88.277) rotate(31.4248)"><tspan x="0" y="0"> </tspan></text><text class="cls-14" transform="translate(236.3072 90.1521) rotate(33.1265)"><tspan x="0" y="0"> </tspan></text><text class="cls-14" transform="translate(239.3274 92.1209) rotate(34.8325)"><tspan x="0" y="0"> </tspan></text><text class="cls-14" transform="translate(242.2736 94.1703) rotate(36.5343)"><tspan x="0" y="0"> </tspan></text><text class="cls-14" transform="translate(245.1833 96.3245) rotate(38.2521)"><tspan x="0" y="0"> </tspan></text><text class="cls-14" transform="translate(247.999 98.541) rotate(39.9548)"><tspan x="0" y="0"> </tspan></text><text class="cls-14" transform="translate(250.7706 100.8627) rotate(41.6737)"><tspan x="0" y="0"> </tspan></text><text class="cls-14" transform="translate(253.4632 103.2577) rotate(43.3872)"><tspan x="0" y="0"> </tspan></text><text class="cls-14" transform="translate(256.0903 105.7409) rotate(45.1079)"><tspan x="0" y="0"> </tspan></text><text class="cls-14" transform="translate(258.6353 108.2939) rotate(46.8227)"><tspan x="0" y="0"> </tspan></text><text class="cls-14" transform="translate(261.0952 110.9154) rotate(48.5319)"><tspan x="0" y="0"> </tspan></text><text class="cls-14" transform="translate(263.4877 113.6194) rotate(50.2464)"><tspan x="0" y="0"> </tspan></text><text class="cls-14" transform="translate(265.7913 116.389) rotate(51.9542)"><tspan x="0" y="0"> </tspan></text><text class="cls-14" transform="translate(267.9956 119.2007) rotate(53.6428)"><tspan x="0" y="0"> </tspan></text><text class="cls-14" transform="translate(270.14 122.111) rotate(55.3469)"><tspan x="0" y="0"> </tspan></text><text class="cls-14" transform="translate(272.1934 125.0809) rotate(57.0436)"><tspan x="0" y="0"> </tspan></text><text class="cls-14" transform="translate(274.1565 128.1076) rotate(58.7302)"><tspan x="0" y="0"> </tspan></text><text class="cls-14" transform="translate(276.0294 131.189) rotate(60.4073)"><tspan x="0" y="0"> </tspan></text><text class="cls-14" transform="translate(277.8073 134.2941) rotate(62.4482)"><tspan x="0" y="0"> </tspan></text><text class="cls-14" transform="translate(279.4909 137.4916) rotate(63.7416)"><tspan x="0" y="0"> </tspan></text><text class="cls-14" transform="translate(281.0916 140.7329) rotate(65.4293)"><tspan x="0" y="0"> </tspan></text><text class="cls-14" transform="translate(282.5877 144.0004) rotate(67.1159)"><tspan x="0" y="0"> </tspan></text><text class="cls-14" transform="translate(283.9869 147.3147) rotate(68.8098)"><tspan x="0" y="0"> </tspan></text><text class="cls-14" transform="translate(285.2988 150.6954) rotate(70.5231)"><tspan x="0" y="0"> </tspan></text><text class="cls-14" transform="translate(286.5023 154.0972) rotate(72.2326)"><tspan x="0" y="0"> </tspan></text><text class="cls-14" transform="translate(287.5999 157.5172) rotate(73.9362)"><tspan x="0" y="0"> </tspan></text><text class="cls-14" transform="translate(288.5977 160.9761) rotate(75.6463)"><tspan x="0" y="0"> </tspan></text><text class="cls-14" transform="translate(289.4879 164.4499) rotate(77.3525)"><tspan x="0" y="0"> </tspan></text><text class="cls-14" transform="translate(290.2808 167.9817) rotate(79.0733)"><tspan x="0" y="0"> </tspan></text><text class="cls-14" transform="translate(290.9656 171.5233) rotate(80.7903)"><tspan x="0" y="0"> </tspan></text><text class="cls-14" transform="translate(291.5435 175.0725) rotate(82.5001)"><tspan x="0" y="0"> </tspan></text><text class="cls-14" transform="translate(292.0547 178.6136) rotate(85.1039)"><tspan x="0" y="0">2</tspan></text><text class="cls-14" transform="translate(292.6418 185.9664) rotate(87.639)"><tspan x="0" y="0">.</tspan></text><text class="cls-14" transform="translate(292.7827 189.2815) rotate(89.272)"><tspan x="0" y="0"> </tspan></text><text class="cls-14" transform="translate(292.894 192.837) rotate(92.1543)"><tspan x="0" y="0">C</tspan></text><text class="cls-14" transform="translate(292.5348 201.4435) rotate(95.5831)"><tspan x="0" y="0">h</tspan></text><text class="cls-14" transform="translate(291.972 207.3709) rotate(98.6105)"><tspan x="0" y="0">a</tspan></text><text class="cls-14" transform="translate(290.9379 214.2012) rotate(101.8204)"><tspan x="0" y="0">ll</tspan></text><text class="cls-14" transform="translate(289.5523 220.793) rotate(104.7897)"><tspan x="0" y="0">e</tspan></text><text class="cls-14" transform="translate(288.0469 226.5598) rotate(107.8098)"><tspan x="0" y="0">n</tspan></text><text class="cls-14" transform="translate(285.9358 233.1272) rotate(110.9714)"><tspan x="0" y="0">g</tspan></text><text class="cls-14" transform="translate(283.5744 239.274) rotate(113.9137)"><tspan x="0" y="0">e</tspan></text><text class="cls-14" transform="translate(281.1685 244.7183) rotate(116.7881)"><tspan x="0" y="0">s</tspan></text><text class="cls-14" transform="translate(278.3095 250.3247) rotate(119.1135)"><tspan x="0" y="0"> </tspan></text><text class="cls-14" transform="translate(276.5502 253.4877) rotate(120.8402)"><tspan x="0" y="0">I</tspan></text><text class="cls-14" transform="translate(274.721 256.6262) rotate(123.3324)"><tspan x="0" y="0">n</tspan></text><text class="cls-14" transform="translate(270.8909 262.3882) rotate(125.8139)"><tspan x="0" y="0"> </tspan></text><text class="cls-14" transform="translate(268.8384 265.3138) rotate(128.4389)"><tspan x="0" y="0">D</tspan></text><text class="cls-14" transform="translate(264.1772 271.1576) rotate(131.6297)"><tspan x="0" y="0">e</tspan></text><text class="cls-14" transform="translate(260.2298 275.6016) rotate(134.4192)"><tspan x="0" y="0">p</tspan></text><text class="cls-14" transform="translate(256.1859 279.7509) rotate(137.4029)"><tspan x="0" y="0">t</tspan></text><text class="cls-14" transform="translate(251.2362 284.293) rotate(140.403)"><tspan x="0" y="0">h</tspan></text><g id="_2._Axes"><line class="cls-21" x1="170.6664" y1="191.1196" x2="172.6518" y2="191.3606"/><line class="cls-23" x1="176.6573" y1="191.847" x2="278.7971" y2="204.249"/><line class="cls-21" x1="280.7999" y1="204.4922" x2="282.7853" y2="204.7333"/><line class="cls-21" x1="170.6664" y1="191.1196" x2="172.3123" y2="192.2557"/><line class="cls-23" x1="175.633" y1="194.5478" x2="260.3098" y2="252.996"/><line class="cls-21" x1="261.9702" y1="254.1421" x2="263.6161" y2="255.2782"/><line class="cls-21" x1="170.6664" y1="191.1196" x2="171.5958" y2="192.8905"/><line class="cls-23" x1="173.4709" y1="196.4632" x2="221.2863" y2="287.5678"/><line class="cls-21" x1="222.2239" y1="289.3542" x2="223.1533" y2="291.1251"/><line class="cls-21" x1="170.6664" y1="191.1196" x2="170.6664" y2="193.1196"/><line class="cls-24" x1="170.6664" y1="197.1545" x2="170.6664" y2="300.0446"/><line class="cls-21" x1="170.6664" y1="302.062" x2="170.6664" y2="304.062"/></g><g id="_2._Lines"><path class="cls-27" d="M263.0058,201.4698c-1.4244,15.1933-1.8809,34.1123-10.5768,44.9825-8.6409,10.8003-27.6849,13.0879-41.2356,20.1878-13.3992,7.0226-27.7908,23.6975-39.6279,22.1555"/><path class="cls-27" d="M224.796,197.1869c-2.4094,8.7553-.6598,20.2874-5.7263,26.6894-5.0464,6.3777-17.1737,6.6604-24.5416,11.709-8.9438,6.1288-17.0636,23.6075-23.2368,23.4497"/><path class="cls-27" d="M196.1389,193.9748c-2.349,3.209-5.0019,7.0766-8.4661,8.6536-2.9347,1.3376-7.5183-.3294-10.1892,1.1957-3.3276,1.901-4.9416,10.633-6.599,10.9517"/></g><g id="_2._Circles"><circle class="cls-9" cx="196.1118" cy="194.2092" r="5.2953"/><circle class="cls-6" cx="196.1118" cy="194.2092" r="4.2362"/><circle class="cls-9" cx="187.5663" cy="202.7848" r="5.2953"/><circle class="cls-7" cx="187.5663" cy="202.7848" r="4.2362"/><circle class="cls-9" cx="177.3668" cy="203.8863" r="5.2953"/><circle class="cls-8" cx="177.3668" cy="203.8863" r="4.2362"/><circle class="cls-9" cx="170.6663" cy="214.7765" r="5.2953"/><circle class="cls-3" cx="170.6663" cy="214.7765" r="4.2362"/><circle class="cls-9" cx="224.738" cy="197.685" r="5.2953"/><circle class="cls-6" cx="224.738" cy="197.685" r="4.2362"/><circle class="cls-9" cx="218.7663" cy="224.3206" r="5.2953"/><circle class="cls-7" cx="218.7663" cy="224.3206" r="4.2362"/><circle class="cls-9" cx="194.118" cy="235.803" r="5.2953"/><circle class="cls-8" cx="194.118" cy="235.803" r="4.2362"/><circle class="cls-9" cx="170.6663" cy="259.0378" r="5.2953"/><circle class="cls-3" cx="170.6663" cy="259.0378" r="4.2362"/><circle class="cls-9" cx="262.9062" cy="202.3195" r="5.2953"/><circle class="cls-6" cx="262.9062" cy="202.3195" r="4.2362"/><circle class="cls-9" cx="251.9163" cy="247.2024" r="5.2953"/><circle class="cls-7" cx="251.9163" cy="247.2024" r="4.2362"/><circle class="cls-9" cx="210.497" cy="267.0104" r="5.2953"/><circle class="cls-8" cx="210.497" cy="267.0104" r="4.2362"/><circle class="cls-9" cx="170.6663" cy="288.7997" r="5.2953"/><circle class="cls-3" cx="170.6663" cy="288.7997" r="4.2362"/></g><path id="_2_color" class="cls-7" d="M282.6893,172.0392l-7.9214,1.353c.9827,5.794,1.5015,11.7457,1.5015,17.8195,0,58.4507-47.3835,105.8343-105.8342,105.8343-6.0929,0-12.0632-.5219-17.8744-1.5105l-1.3094,7.5516c6.4266,1.132,13.0391,1.7253,19.7903,1.7253,62.5835,0,113.3176-50.7341,113.3176-113.3177,0-6.6344-.5759-13.1337-1.6699-19.4554Z"/></g><g id="_3_Group"><text class="cls-14" transform="translate(108.3339 296.4884) rotate(-147.8673)"><tspan x="0" y="0"> </tspan></text><text class="cls-14" transform="translate(105.2817 294.5728) rotate(-146.1723)"><tspan x="0" y="0"> </tspan></text><text class="cls-14" transform="translate(102.2853 292.5657) rotate(-144.4735)"><tspan x="0" y="0"> </tspan></text><text class="cls-14" transform="translate(99.3641 290.4818) rotate(-142.7813)"><tspan x="0" y="0"> </tspan></text><text class="cls-14" transform="translate(96.485 288.295) rotate(-141.0749)"><tspan x="0" y="0"> </tspan></text><text class="cls-14" transform="translate(93.6845 286.035) rotate(-139.3731)"><tspan x="0" y="0"> </tspan></text><text class="cls-14" transform="translate(90.9471 283.6887) rotate(-137.6664)"><tspan x="0" y="0"> </tspan></text><text class="cls-14" transform="translate(88.2928 281.2726) rotate(-135.9654)"><tspan x="0" y="0"> </tspan></text><text class="cls-14" transform="translate(85.6892 278.7569) rotate(-134.2468)"><tspan x="0" y="0"> </tspan></text><text class="cls-14" transform="translate(83.1878 276.1915) rotate(-132.545)"><tspan x="0" y="0"> </tspan></text><text class="cls-14" transform="translate(80.742 273.5281) rotate(-130.827)"><tspan x="0" y="0"> </tspan></text><text class="cls-14" transform="translate(78.3861 270.8018) rotate(-129.1126)"><tspan x="0" y="0"> </tspan></text><text class="cls-14" transform="translate(76.1047 267.9972) rotate(-127.3919)"><tspan x="0" y="0"> </tspan></text><text class="cls-14" transform="translate(73.9139 265.1342) rotate(-125.6779)"><tspan x="0" y="0"> </tspan></text><text class="cls-14" transform="translate(71.8173 262.2141) rotate(-123.968)"><tspan x="0" y="0"> </tspan></text><text class="cls-14" transform="translate(69.7982 259.2209) rotate(-122.2543)"><tspan x="0" y="0"> </tspan></text><text class="cls-14" transform="translate(67.8758 256.1742) rotate(-120.5466)"><tspan x="0" y="0"> </tspan></text><text class="cls-14" transform="translate(66.0575 253.0988) rotate(-118.8579)"><tspan x="0" y="0"> </tspan></text><text class="cls-14" transform="translate(64.3123 249.9331) rotate(-117.1539)"><tspan x="0" y="0"> </tspan></text><text class="cls-14" transform="translate(62.6632 246.7209) rotate(-115.4572)"><tspan x="0" y="0"> </tspan></text><text class="cls-14" transform="translate(61.1119 243.4638) rotate(-113.7705)"><tspan x="0" y="0"> </tspan></text><text class="cls-14" transform="translate(59.6574 240.1643) rotate(-112.0934)"><tspan x="0" y="0"> </tspan></text><text class="cls-14" transform="translate(58.3 236.8537) rotate(-110.05)"><tspan x="0" y="0"> </tspan></text><text class="cls-14" transform="translate(57.0482 233.4637) rotate(-108.7566)"><tspan x="0" y="0"> </tspan></text><text class="cls-14" transform="translate(55.8843 230.0412) rotate(-107.0689)"><tspan x="0" y="0"> </tspan></text><text class="cls-14" transform="translate(54.8285 226.606) rotate(-105.3823)"><tspan x="0" y="0"> </tspan></text><text class="cls-14" transform="translate(53.873 223.1378) rotate(-103.6884)"><tspan x="0" y="0"> </tspan></text><text class="cls-14" transform="translate(53.0146 219.6144) rotate(-101.976)"><tspan x="0" y="0"> </tspan></text><text class="cls-14" transform="translate(52.2646 216.0849) rotate(-100.2656)"><tspan x="0" y="0"> </tspan></text><text class="cls-14" transform="translate(51.6237 212.5506) rotate(-98.5629)"><tspan x="0" y="0"> </tspan></text><text class="cls-14" transform="translate(51.0851 208.9913) rotate(-96.8519)"><tspan x="0" y="0"> </tspan></text><text class="cls-14" transform="translate(50.6569 205.4308) rotate(-95.1466)"><tspan x="0" y="0"> </tspan></text><text class="cls-14" transform="translate(50.331 201.8261) rotate(-93.4249)"><tspan x="0" y="0"> </tspan></text><text class="cls-14" transform="translate(50.0755 198.2523) rotate(-90.8903)"><tspan x="0" y="0">3</tspan></text><text class="cls-14" transform="translate(50.0049 191.2166) rotate(-88.4364)"><tspan x="0" y="0">.</tspan></text><text class="cls-14" transform="translate(50.0932 187.8604) rotate(-86.7819)"><tspan x="0" y="0"> </tspan></text><text class="cls-14" transform="translate(50.2499 184.314) rotate(-84.2501)"><tspan x="0" y="0">R</tspan></text><text class="cls-14" transform="translate(50.9775 177.2189) rotate(-81.1556)"><tspan x="0" y="0">e</tspan></text><text class="cls-14" transform="translate(51.8752 171.3256) rotate(-78.0787)"><tspan x="0" y="0">c</tspan></text><text class="cls-14" transform="translate(53.3229 164.4445) rotate(-74.7673)"><tspan x="0" y="0">o</tspan></text><text class="cls-14" transform="translate(55.1663 157.6352) rotate(-71.341)"><tspan x="0" y="0">m</tspan></text><text class="cls-14" transform="translate(57.565 150.5151) rotate(-67.8155)"><tspan x="0" y="0">m</tspan></text><text class="cls-14" transform="translate(60.4277 143.5437) rotate(-64.6564)"><tspan x="0" y="0">e</tspan></text><text class="cls-14" transform="translate(62.9542 138.1694) rotate(-61.6455)"><tspan x="0" y="0">n</tspan></text><text class="cls-14" transform="translate(66.2403 132.0732) rotate(-58.393)"><tspan x="0" y="0">d</tspan></text><text class="cls-14" transform="translate(69.8475 126.2032) rotate(-55.1512)"><tspan x="0" y="0">a</tspan></text><text class="cls-14" transform="translate(73.784 120.5457) rotate(-51.9393)"><tspan x="0" y="0">t</tspan></text><text class="cls-14" transform="translate(77.992 115.236) rotate(-49.7962)"><tspan x="0" y="0">i</tspan></text><text class="cls-14" transform="translate(79.4307 113.4592) rotate(-47.5791)"><tspan x="0" y="0">o</tspan></text><text class="cls-14" transform="translate(84.2088 108.229) rotate(-44.2573)"><tspan x="0" y="0">n</tspan></text><text class="cls-14" transform="translate(89.1481 103.422) rotate(-41.1343)"><tspan x="0" y="0">s</tspan></text><g id="_3._Words"><text class="cls-18" transform="translate(77.0156 167.7223)"><tspan x="0" y="0">Inspirations</tspan></text><text class="cls-17" transform="translate(97.8635 192.3891)"><tspan x="0" y="0">People</tspan></text><text class="cls-20" transform="translate(101.8537 255.0103)"><tspan x="0" y="0">Books</tspan></text><text class="cls-15" transform="translate(105.0011 147.5907)"><tspan x="0" y="0">Blogs</tspan></text><text class="cls-12" transform="translate(112.05 235.5907)"><tspan x="0" y="0">Resources</tspan></text><text class="cls-13" transform="translate(79.4929 216.1117)"><tspan x="0" y="0">Communities</tspan></text></g><path id="_3_color" class="cls-5" d="M64.6008,191.2117c0-42.5414,25.1036-79.2137,61.3021-96.0289l-2.8926-6.3435c-38.5696,18.0776-65.2866,57.2433-65.2866,102.6554,0,55.8323,40.3796,102.2309,93.5276,111.5923l1.3094-7.5516c-49.9376-8.4953-87.9599-51.9659-87.9599-104.3238Z"/></g><circle id="Outside_Stroke" class="cls-26" cx="171.0415" cy="191.4947" r="113.3177"/><g id="_1"><circle class="cls-22" cx="124.4243" cy="92.9578" r="8.0718"/><text class="cls-11" transform="translate(120.5063 97.6383)"><tspan x="0" y="0">1</tspan></text></g><g id="_2"><circle class="cls-22" cx="278.7894" cy="173.3922" r="8.0718"/><text class="cls-19" transform="translate(275.5131 178.1007)"><tspan x="0" y="0">2</tspan></text></g><g id="_3"><circle id="_3-2" class="cls-22" cx="150.5346" cy="299.1969" r="8.0718"/><text class="cls-16" transform="translate(147.3989 303.9054)"><tspan x="0" y="0">3</tspan></text></g></svg>