<?xml version="1.0" encoding="UTF-8"?><svg id="Variable-2" xmlns="http://www.w3.org/2000/svg" xmlns:xlink="http://www.w3.org/1999/xlink" viewBox="0 0 353.0708 335.4946"><defs><style>.cls-1,.cls-2,.cls-3,.cls-4,.cls-5,.cls-6,.cls-7,.cls-8,.cls-9{stroke-width:0px;}.cls-1,.cls-10{fill:#fa8b5c;}.cls-11,.cls-12,.cls-13,.cls-14,.cls-15,.cls-16,.cls-17,.cls-18{fill:none;}.cls-11,.cls-12,.cls-14,.cls-15,.cls-18{stroke-linecap:round;stroke-linejoin:round;}.cls-11,.cls-13{stroke:#000;}.cls-19,.cls-20,.cls-21,.cls-22,.cls-10,.cls-23,.cls-24{font-family:PatrickHandSC-Regular, 'Patrick Hand SC';}.cls-19,.cls-20,.cls-21,.cls-22,.cls-23{fill:#000;}.cls-19,.cls-20,.cls-22{font-size:16px;}.cls-19,.cls-23{letter-spacing:.03em;}.cls-12,.cls-25,.cls-14,.cls-15,.cls-16,.cls-17{stroke:#d6d6d6;}.cls-12,.cls-14,.cls-15{stroke-width:.5px;}.cls-20{letter-spacing:.03em;}.cls-21{font-size:10px;letter-spacing:.03em;}.cls-2{fill:#ec6143;}.cls-3{fill:#fddcaf;}.cls-4{fill:#fca16c;}.cls-5{fill:#fdb57e;}.cls-10,.cls-24{font-size:14px;letter-spacing:.03em;}.cls-6,.cls-24{fill:#fdc58e;}.cls-23{font-size:12px;}.cls-7{fill:#fdd19e;}.cls-25,.cls-13,.cls-16,.cls-17{stroke-miterlimit:10;}.cls-25,.cls-8{fill:#fff;}.cls-26{opacity:.4;}.cls-14{stroke-dasharray:0 0 4.0349 4.0349;}.cls-15{stroke-dasharray:0 0 4.0349 4.0349;}.cls-16{filter:url(#drop-shadow-1);}.cls-9{fill:#f4774f;}.cls-18{opacity:.5;stroke:#ec6143;stroke-width:8px;}</style><filter id="drop-shadow-1" filterUnits="userSpaceOnUse"><feOffset dx="0" dy="0"/><feGaussianBlur result="blur" stdDeviation="10"/><feFlood flood-color="#000" flood-opacity="1"/><feComposite in2="blur" operator="in"/><feComposite in="SourceGraphic"/></filter></defs><g id="Bottom"><circle class="cls-16" cx="171.0415" cy="191.4946" r="113.3177"/><circle class="cls-25" cx="171.0415" cy="191.4946" r="113.3177"/></g><g id="Fill_In" class="cls-26"><polyline class="cls-18" points="257.2121 207.0214 233.1842 204.9757 257.6104 219.0248 231.298 212.0003 251.9163 228.5572 228.9746 220.084 245.561 241.0993 224.796 233.3333 241.2032 251.439 213.4705 231.5659 230.0338 252.4982 208.1137 238.4258 220.5013 255.2781 198.3551 243.8761 202.8351 256.5895 191.803 247.5908 198.8039 259.816 188.8215 252.4982 199.4144 267.0104 184.1808 255.2782 189.8809 275.2072 177.3668 260.4948 181.6039 279.6618 175.9616 267.0104 175.9616 281.6204"/><polyline class="cls-18" points="215.7933 201.4698 198.0436 201.4698 215.7933 210.5402 195.3006 208.1234 208.1137 223.1989 185.6481 214.7758 196.7301 228.1115 177.3668 216.868 181.6039 240.0401 173.1297 220.7549 174.9026 251.439"/><polyline class="cls-18" points="184.1808 195.623 175.1425 194.2092 179.8941 197.489 173.1297 194.2092 172.6781 206.3471"/><polyline class="cls-18" points="275.0035 207.6153 268.202 209.1826 275.0035 216.1613 268.202 216.1613 271.6028 222.3799 267.1429 222.3799 271.0732 231.5659 263.6162 231.5659 268.202 238.4258 261.0543 240.0401 265.0661 245.1828 258.6695 252.4982 257.6104 257.2029 249.3838 257.2029 251.9163 263.274 243.5486 263.274 246.6205 268.6786 232.7385 265.1246 239.6847 271.2475 228.0861 268.5924 232.2334 277.1364 220.0568 272.1881 226.7258 283.5044 214.7853 276.5426 218.7663 285.3893 209.9435 278.5133 210.497 291.1251 204.1761 275.2433 204.1761 294.095 200.5295 284.8668 199.4144 297.4902 192.8621 288.8958 191.803 294.8876 184.1808 291.1251 181.6039 296.4607 177.3668 293.0359 175.9616 296.9035"/></g><g id="_1_Group"><text class="cls-22" transform="translate(51.5928 173.2845) rotate(-79.9402)"><tspan x="0" y="0"> </tspan></text><text class="cls-22" transform="translate(52.221 169.7361) rotate(-78.2452)"><tspan x="0" y="0"> </tspan></text><text class="cls-22" transform="translate(52.955 166.2051) rotate(-76.5464)"><tspan x="0" y="0"> </tspan></text><text class="cls-22" transform="translate(53.7885 162.7149) rotate(-74.8542)"><tspan x="0" y="0"> </tspan></text><text class="cls-22" transform="translate(54.7324 159.2244) rotate(-73.1471)"><tspan x="0" y="0"> </tspan></text><text class="cls-22" transform="translate(55.7744 155.7799) rotate(-71.4453)"><tspan x="0" y="0"> </tspan></text><text class="cls-22" transform="translate(56.9202 152.3614) rotate(-69.7386)"><tspan x="0" y="0"> </tspan></text><text class="cls-22" transform="translate(58.1617 148.9938) rotate(-68.0376)"><tspan x="0" y="0"> </tspan></text><text class="cls-22" transform="translate(59.5147 145.6357) rotate(-66.3198)"><tspan x="0" y="0"> </tspan></text><text class="cls-22" transform="translate(60.9522 142.3536) rotate(-64.6164)"><tspan x="0" y="0"> </tspan></text><text class="cls-22" transform="translate(62.5012 139.0863) rotate(-62.8983)"><tspan x="0" y="0"> </tspan></text><text class="cls-22" transform="translate(64.1424 135.8785) rotate(-61.184)"><tspan x="0" y="0"> </tspan></text><text class="cls-22" transform="translate(65.8849 132.7111) rotate(-59.4641)"><tspan x="0" y="0"> </tspan></text><text class="cls-22" transform="translate(67.7147 129.6051) rotate(-57.7493)"><tspan x="0" y="0"> </tspan></text><text class="cls-22" transform="translate(69.633 126.5648) rotate(-56.0402)"><tspan x="0" y="0"> </tspan></text><text class="cls-22" transform="translate(71.6482 123.569) rotate(-54.3257)"><tspan x="0" y="0"> </tspan></text><text class="cls-22" transform="translate(73.7492 120.6426) rotate(-52.6179)"><tspan x="0" y="0"> </tspan></text><text class="cls-22" transform="translate(75.916 117.8018) rotate(-50.9292)"><tspan x="0" y="0"> </tspan></text><text class="cls-22" transform="translate(78.193 114.9943) rotate(-49.2252)"><tspan x="0" y="0"> </tspan></text><text class="cls-22" transform="translate(80.5508 112.2597) rotate(-47.5285)"><tspan x="0" y="0"> </tspan></text><text class="cls-22" transform="translate(82.9863 109.5982) rotate(-45.8419)"><tspan x="0" y="0"> </tspan></text><text class="cls-22" transform="translate(85.4974 107.0105) rotate(-44.1647)"><tspan x="0" y="0"> </tspan></text><text class="cls-22" transform="translate(88.0553 104.5085) rotate(-42.123)"><tspan x="0" y="0"> </tspan></text><text class="cls-22" transform="translate(90.7264 102.0746) rotate(-40.8296)"><tspan x="0" y="0"> </tspan></text><text class="cls-22" transform="translate(93.4607 99.7099) rotate(-39.141)"><tspan x="0" y="0"> </tspan></text><text class="cls-22" transform="translate(96.2467 97.44) rotate(-37.4553)"><tspan x="0" y="0"> </tspan></text><text class="cls-22" transform="translate(99.1024 95.2519) rotate(-35.7614)"><tspan x="0" y="0"> </tspan></text><text class="cls-22" transform="translate(102.0443 93.1317) rotate(-34.0481)"><tspan x="0" y="0"> </tspan></text><text class="cls-22" transform="translate(105.034 91.1111) rotate(-32.3386)"><tspan x="0" y="0"> </tspan></text><text class="cls-22" transform="translate(108.0677 89.1884) rotate(-30.635)"><tspan x="0" y="0"> </tspan></text><text class="cls-22" transform="translate(111.1644 87.3525) rotate(-28.9241)"><tspan x="0" y="0"> </tspan></text><text class="cls-22" transform="translate(114.3025 85.6169) rotate(-27.2187)"><tspan x="0" y="0"> </tspan></text><text class="cls-22" transform="translate(117.5212 83.9611) rotate(-25.4971)"><tspan x="0" y="0"> </tspan></text><text class="cls-22" transform="translate(120.7767 82.4072) rotate(-23.7801)"><tspan x="0" y="0"> </tspan></text><text class="cls-22" transform="translate(124.067 80.9557) rotate(-22.0703)"><tspan x="0" y="0"> </tspan></text><text class="cls-22" transform="translate(127.381 79.5877) rotate(-19.8615)"><tspan x="0" y="0">1</tspan></text><text class="cls-22" transform="translate(132.7588 77.6668) rotate(-17.7182)"><tspan x="0" y="0">.</tspan></text><text class="cls-22" transform="translate(135.9435 76.6455) rotate(-16.0712)"><tspan x="0" y="0"> </tspan></text><text class="cls-22" transform="translate(139.325 75.6019) rotate(-13.1956)"><tspan x="0" y="0">C</tspan></text><text class="cls-22" transform="translate(147.7246 73.6699) rotate(-9.7621)"><tspan x="0" y="0">h</tspan></text><text class="cls-22" transform="translate(153.5925 72.6436) rotate(-6.7323)"><tspan x="0" y="0">a</tspan></text><text class="cls-22" transform="translate(160.4544 71.8326) rotate(-3.5199)"><tspan x="0" y="0">ll</tspan></text><text class="cls-22" transform="translate(167.179 71.4253) rotate(-.5498)"><tspan x="0" y="0">e</tspan></text><text class="cls-22" transform="translate(173.1168 71.352) rotate(2.46)"><tspan x="0" y="0">n</tspan></text><text class="cls-22" transform="translate(180.007 71.648) rotate(5.6211)"><tspan x="0" y="0">g</tspan></text><text class="cls-22" transform="translate(186.5809 72.3008) rotate(8.5712)"><tspan x="0" y="0">e</tspan></text><text class="cls-22" transform="translate(192.4652 73.1797) rotate(11.4439)"><tspan x="0" y="0">s</tspan></text><text class="cls-22" transform="translate(198.6264 74.4533) rotate(13.7665)"><tspan x="0" y="0"> </tspan></text><g id="_1._Axes"><line class="cls-12" x1="170.6664" y1="191.1196" x2="170.1877" y2="189.1777"/><line class="cls-15" x1="169.2221" y1="185.26" x2="144.5989" y2="85.3597"/><line class="cls-12" x1="144.1161" y1="83.4009" x2="143.6374" y2="81.459"/><line class="cls-12" x1="170.6664" y1="191.1196" x2="171.145" y2="189.1777"/><line class="cls-15" x1="172.1106" y1="185.26" x2="196.7338" y2="85.3597"/><line class="cls-12" x1="197.2166" y1="83.4009" x2="197.6953" y2="81.459"/><line class="cls-12" x1="170.6664" y1="191.1196" x2="171.9926" y2="189.6225"/><line class="cls-14" x1="174.6682" y1="186.6024" x2="242.897" y2="109.5881"/><line class="cls-12" x1="244.2348" y1="108.078" x2="245.5611" y2="106.5809"/><line class="cls-12" x1="170.6664" y1="191.1196" x2="172.5364" y2="190.4104"/><line class="cls-15" x1="176.3091" y1="188.9796" x2="272.513" y2="152.4942"/><line class="cls-12" x1="274.3993" y1="151.7788" x2="276.2694" y2="151.0696"/></g><g id="_1._Bars"><path class="cls-2" d="M130.6341,105.5587c11.0741-5.1458,23.041-8.0952,35.238-8.685l4.563,94.338-39.801-85.653Z"/><path class="cls-9" d="M173.9231,119.0926c9.3241.4511,18.4723,2.7061,26.938,6.64l-30.426,65.479,3.488-72.119Z"/><path class="cls-1" d="M213.4901,118.0057c9.4648,5.5667,17.7602,12.9161,24.427,21.641l-67.482,51.565,43.055-73.206Z"/><path class="cls-4" d="M215.7551,163.0617c3.6397,5.8593,6.1086,12.3688,7.27,19.168l-52.59,8.982,45.32-28.15Z"/></g><path id="_1_color" class="cls-1" d="M170.4351,85.3774c52.377,0,95.8601,38.0503,104.3328,88.0148l7.9214-1.353c-9.2256-53.3126-55.6986-93.8622-111.6477-93.8622-17.1716,0-33.447,3.8267-48.0312,10.6623l2.8926,6.3435c13.5372-6.2884,28.6228-9.8054,44.5322-9.8054Z"/></g><g id="_2_Group"><text class="cls-22" transform="translate(220.4183 81.7011) rotate(24.6316)"><tspan x="0" y="0"> </tspan></text><text class="cls-22" transform="translate(223.6945 83.2017) rotate(26.3266)"><tspan x="0" y="0"> </tspan></text><text class="cls-22" transform="translate(226.9273 84.8006) rotate(28.0254)"><tspan x="0" y="0"> </tspan></text><text class="cls-22" transform="translate(230.0955 86.4852) rotate(29.7176)"><tspan x="0" y="0"> </tspan></text><text class="cls-22" transform="translate(233.2363 88.277) rotate(31.4248)"><tspan x="0" y="0"> </tspan></text><text class="cls-22" transform="translate(236.3079 90.1521) rotate(33.1265)"><tspan x="0" y="0"> </tspan></text><text class="cls-22" transform="translate(239.3281 92.1209) rotate(34.8325)"><tspan x="0" y="0"> </tspan></text><text class="cls-22" transform="translate(242.2742 94.1703) rotate(36.5343)"><tspan x="0" y="0"> </tspan></text><text class="cls-22" transform="translate(245.1839 96.3245) rotate(38.2521)"><tspan x="0" y="0"> </tspan></text><text class="cls-22" transform="translate(247.9996 98.541) rotate(39.9548)"><tspan x="0" y="0"> </tspan></text><text class="cls-22" transform="translate(250.7713 100.8627) rotate(41.6737)"><tspan x="0" y="0"> </tspan></text><text class="cls-22" transform="translate(253.4638 103.2577) rotate(43.3872)"><tspan x="0" y="0"> </tspan></text><text class="cls-22" transform="translate(256.0909 105.7409) rotate(45.1079)"><tspan x="0" y="0"> </tspan></text><text class="cls-22" transform="translate(258.6359 108.2939) rotate(46.8227)"><tspan x="0" y="0"> </tspan></text><text class="cls-22" transform="translate(261.0958 110.9154) rotate(48.5319)"><tspan x="0" y="0"> </tspan></text><text class="cls-22" transform="translate(263.4883 113.6194) rotate(50.2464)"><tspan x="0" y="0"> </tspan></text><text class="cls-22" transform="translate(265.792 116.389) rotate(51.9542)"><tspan x="0" y="0"> </tspan></text><text class="cls-22" transform="translate(267.9962 119.2007) rotate(53.6428)"><tspan x="0" y="0"> </tspan></text><text class="cls-22" transform="translate(270.1406 122.111) rotate(55.3469)"><tspan x="0" y="0"> </tspan></text><text class="cls-22" transform="translate(272.194 125.0809) rotate(57.0436)"><tspan x="0" y="0"> </tspan></text><text class="cls-22" transform="translate(274.1572 128.1076) rotate(58.7302)"><tspan x="0" y="0"> </tspan></text><text class="cls-22" transform="translate(276.03 131.189) rotate(60.4073)"><tspan x="0" y="0"> </tspan></text><text class="cls-22" transform="translate(277.8079 134.2941) rotate(62.4482)"><tspan x="0" y="0"> </tspan></text><text class="cls-22" transform="translate(279.4916 137.4916) rotate(63.7416)"><tspan x="0" y="0"> </tspan></text><text class="cls-22" transform="translate(281.0923 140.7329) rotate(65.4293)"><tspan x="0" y="0"> </tspan></text><text class="cls-22" transform="translate(282.5883 144.0004) rotate(67.1159)"><tspan x="0" y="0"> </tspan></text><text class="cls-22" transform="translate(283.9876 147.3147) rotate(68.8098)"><tspan x="0" y="0"> </tspan></text><text class="cls-22" transform="translate(285.2995 150.6954) rotate(70.5231)"><tspan x="0" y="0"> </tspan></text><text class="cls-22" transform="translate(286.5029 154.0972) rotate(72.2326)"><tspan x="0" y="0"> </tspan></text><text class="cls-22" transform="translate(287.6006 157.5172) rotate(73.9362)"><tspan x="0" y="0"> </tspan></text><text class="cls-22" transform="translate(288.5983 160.9761) rotate(75.6463)"><tspan x="0" y="0"> </tspan></text><text class="cls-22" transform="translate(289.4886 164.4499) rotate(77.3525)"><tspan x="0" y="0"> </tspan></text><text class="cls-22" transform="translate(290.2814 167.9817) rotate(79.0733)"><tspan x="0" y="0"> </tspan></text><text class="cls-22" transform="translate(290.9663 171.5233) rotate(80.7903)"><tspan x="0" y="0"> </tspan></text><text class="cls-22" transform="translate(291.5441 175.0725) rotate(82.5001)"><tspan x="0" y="0"> </tspan></text><text class="cls-22" transform="translate(292.0554 178.6136) rotate(85.1039)"><tspan x="0" y="0">2</tspan></text><text class="cls-22" transform="translate(292.6425 185.9664) rotate(87.639)"><tspan x="0" y="0">.</tspan></text><text class="cls-22" transform="translate(292.7834 189.2815) rotate(89.272)"><tspan x="0" y="0"> </tspan></text><text class="cls-22" transform="translate(292.8947 192.837) rotate(92.1543)"><tspan x="0" y="0">C</tspan></text><text class="cls-22" transform="translate(292.5355 201.4435) rotate(95.5831)"><tspan x="0" y="0">h</tspan></text><text class="cls-22" transform="translate(291.9726 207.3709) rotate(98.6105)"><tspan x="0" y="0">a</tspan></text><text class="cls-22" transform="translate(290.9386 214.2012) rotate(101.8204)"><tspan x="0" y="0">ll</tspan></text><text class="cls-22" transform="translate(289.553 220.793) rotate(104.7897)"><tspan x="0" y="0">e</tspan></text><text class="cls-22" transform="translate(288.0475 226.5598) rotate(107.8098)"><tspan x="0" y="0">n</tspan></text><text class="cls-22" transform="translate(285.9365 233.1272) rotate(110.9714)"><tspan x="0" y="0">g</tspan></text><text class="cls-22" transform="translate(283.5751 239.274) rotate(113.9137)"><tspan x="0" y="0">e</tspan></text><text class="cls-22" transform="translate(281.1692 244.7183) rotate(116.7881)"><tspan x="0" y="0">s</tspan></text><text class="cls-22" transform="translate(278.3102 250.3247) rotate(119.1135)"><tspan x="0" y="0"> </tspan></text><text class="cls-22" transform="translate(276.5509 253.4877) rotate(120.8402)"><tspan x="0" y="0">I</tspan></text><text class="cls-22" transform="translate(274.7217 256.6262) rotate(123.3324)"><tspan x="0" y="0">n</tspan></text><text class="cls-22" transform="translate(270.8915 262.3882) rotate(125.8139)"><tspan x="0" y="0"> </tspan></text><text class="cls-22" transform="translate(268.839 265.3138) rotate(128.4389)"><tspan x="0" y="0">D</tspan></text><text class="cls-22" transform="translate(264.1779 271.1576) rotate(131.6297)"><tspan x="0" y="0">e</tspan></text><text class="cls-22" transform="translate(260.2304 275.6016) rotate(134.4192)"><tspan x="0" y="0">p</tspan></text><text class="cls-22" transform="translate(256.1865 279.7509) rotate(137.4029)"><tspan x="0" y="0">t</tspan></text><text class="cls-22" transform="translate(251.2369 284.293) rotate(140.403)"><tspan x="0" y="0">h</tspan></text><g id="_2._Axes"><line class="cls-12" x1="170.6664" y1="191.1196" x2="172.6518" y2="191.3606"/><line class="cls-15" x1="176.6573" y1="191.847" x2="278.7971" y2="204.249"/><line class="cls-12" x1="280.7999" y1="204.4922" x2="282.7853" y2="204.7333"/><line class="cls-12" x1="170.6664" y1="191.1196" x2="172.3123" y2="192.2557"/><line class="cls-15" x1="175.633" y1="194.5478" x2="260.3099" y2="252.996"/><line class="cls-12" x1="261.9702" y1="254.1421" x2="263.6161" y2="255.2782"/><line class="cls-12" x1="170.6664" y1="191.1196" x2="171.5958" y2="192.8905"/><line class="cls-15" x1="173.4709" y1="196.4632" x2="221.2863" y2="287.5678"/><line class="cls-12" x1="222.2239" y1="289.3542" x2="223.1533" y2="291.1251"/><line class="cls-12" x1="170.6664" y1="191.1196" x2="170.6664" y2="193.1196"/><line class="cls-15" x1="170.6664" y1="197.1545" x2="170.6664" y2="300.0446"/><line class="cls-12" x1="170.6664" y1="302.062" x2="170.6664" y2="304.062"/></g><g id="_2._Lines"><path class="cls-13" d="M263.0058,201.4698c-1.4244,15.1933-1.8809,34.1123-10.5768,44.9825-8.6409,10.8003-27.6849,13.0879-41.2356,20.1878-13.3992,7.0226-27.7908,23.6975-39.6279,22.1555"/><path class="cls-13" d="M224.796,197.1869c-2.4094,8.7553-.6598,20.2874-5.7263,26.6894-5.0464,6.3777-17.1737,6.6604-24.5416,11.709-8.9438,6.1288-17.0636,23.6075-23.2368,23.4497"/><path class="cls-13" d="M196.1389,193.9748c-2.349,3.209-5.0019,7.0766-8.4661,8.6536-2.9347,1.3376-7.5183-.3294-10.1892,1.1957-3.3276,1.901-4.9416,10.633-6.599,10.9517"/></g><g id="_2._Circles"><circle class="cls-8" cx="196.1118" cy="194.2092" r="5.2953"/><circle class="cls-5" cx="196.1118" cy="194.2092" r="4.2362"/><circle class="cls-8" cx="187.5663" cy="202.7848" r="5.2953"/><circle class="cls-6" cx="187.5663" cy="202.7848" r="4.2362"/><circle class="cls-8" cx="177.3668" cy="203.8863" r="5.2953"/><circle class="cls-7" cx="177.3668" cy="203.8863" r="4.2362"/><circle class="cls-8" cx="170.6663" cy="214.7765" r="5.2953"/><circle class="cls-3" cx="170.6663" cy="214.7765" r="4.2362"/><circle class="cls-8" cx="224.738" cy="197.685" r="5.2953"/><circle class="cls-5" cx="224.738" cy="197.685" r="4.2362"/><circle class="cls-8" cx="218.7663" cy="224.3206" r="5.2953"/><circle class="cls-6" cx="218.7663" cy="224.3206" r="4.2362"/><circle class="cls-8" cx="194.118" cy="235.803" r="5.2953"/><circle class="cls-7" cx="194.118" cy="235.803" r="4.2362"/><circle class="cls-8" cx="170.6663" cy="259.0378" r="5.2953"/><circle class="cls-3" cx="170.6663" cy="259.0378" r="4.2362"/><circle class="cls-8" cx="262.9062" cy="202.3195" r="5.2953"/><circle class="cls-5" cx="262.9062" cy="202.3195" r="4.2362"/><circle class="cls-8" cx="251.9163" cy="247.2024" r="5.2953"/><circle class="cls-6" cx="251.9163" cy="247.2024" r="4.2362"/><circle class="cls-8" cx="210.497" cy="267.0104" r="5.2953"/><circle class="cls-7" cx="210.497" cy="267.0104" r="4.2362"/><circle class="cls-8" cx="170.6663" cy="288.7997" r="5.2953"/><circle class="cls-3" cx="170.6663" cy="288.7997" r="4.2362"/></g><path id="_2_color" class="cls-6" d="M282.6893,172.0392l-7.9214,1.353c.9827,5.794,1.5015,11.7457,1.5015,17.8195,0,58.4507-47.3835,105.8343-105.8342,105.8343-6.0929,0-12.0632-.5219-17.8744-1.5105l-1.3094,7.5516c6.4266,1.132,13.0391,1.7253,19.7903,1.7253,62.5835,0,113.3176-50.7341,113.3176-113.3177,0-6.6344-.5759-13.1337-1.6699-19.4554Z"/></g><circle id="Outside_Stroke" class="cls-17" cx="171.0415" cy="191.4947" r="113.3177"/><g id="_1"><circle class="cls-25" cx="124.4243" cy="92.9578" r="8.0718"/><text class="cls-10" transform="translate(120.5065 97.6383)"><tspan x="0" y="0">1</tspan></text></g><g id="_2"><circle class="cls-25" cx="278.7895" cy="173.3922" r="8.0718"/><text class="cls-24" transform="translate(275.5133 178.1007)"><tspan x="0" y="0">2</tspan></text></g><text class="cls-23" transform="translate(197.9434 292.6067) rotate(-32.1968)"><tspan x="0" y="0">Significant</tspan></text><text class="cls-23" transform="translate(186.2872 267.1869) rotate(-32.1968)"><tspan x="0" y="0">Moderate</tspan></text><text class="cls-23" transform="translate(177.8799 231.2102) rotate(-32.1968)"><tspan x="0" y="0">Minor</tspan></text><text class="cls-23" transform="translate(168.8235 207.9704) rotate(-32.1968)"><tspan x="0" y="0">None</tspan></text><text class="cls-21" transform="translate(112.7826 289.8453) rotate(-54.1542)"><tspan x="0" y="0">100%</tspan></text><text class="cls-20" transform="translate(95.2727 278.7572) rotate(-54.1542)"><tspan x="0" y="0">% of Respondents</tspan></text><text class="cls-19" transform="translate(81.7565 268.9926) rotate(-54.1542)"><tspan x="0" y="0">Radius = </tspan></text><polyline class="cls-11" points="169.7118 192.3892 103.6782 284.8287 107.534 284.6634"/><line class="cls-11" x1="103.2333" y1="281.128" x2="103.6782" y2="284.8287"/></svg>